<svg width="150" height="150" viewBox="0 0 150 150" fill="none" xmlns="http://www.w3.org/2000/svg">
<circle cx="75" cy="75" r="75" fill="black" fill-opacity="0.1"/>
<path d="M33.3867 105.065C37.6106 105.06 54.438 105.031 54.438 104.889C54.438 104.747 38.3199 104.718 33.6745 104.713L33.3867 105.065Z" fill="#666666"/>
<path d="M33.9609 104.357C38.1644 104.352 54.775 104.323 54.775 104.181C54.775 104.039 38.8687 104.01 34.2487 104.005L33.9609 104.357Z" fill="#666666"/>
<path d="M35.1113 102.941C39.274 102.936 55.4508 102.907 55.4508 102.765C55.4508 102.623 39.9662 102.594 35.3986 102.589L35.1113 102.941Z" fill="#666666"/>
<path d="M35.6855 102.234C39.8276 102.228 55.7879 102.199 55.7879 102.058C55.7879 101.917 40.516 101.887 35.9726 101.882L35.6855 102.234Z" fill="#666666"/>
<path d="M34.5352 103.649C38.7188 103.644 55.1121 103.615 55.1121 103.472C55.1121 103.329 39.4177 103.301 34.8232 103.296L34.5352 103.649Z" fill="#666666"/>
<path d="M32.5222 106.126L32.2344 106.48C36.523 106.475 54.0123 106.446 54.0123 106.303C54.0123 106.159 37.2516 106.132 32.5222 106.126Z" fill="#666666"/>
<path d="M31.6602 107.188C36.0452 107.183 54.3782 107.155 54.3782 107.012C54.3782 106.869 36.7927 106.84 31.9477 106.836L31.6602 107.188Z" fill="#666666"/>
<path d="M33.0983 105.419L32.8105 105.773C37.0528 105.768 54.0992 105.739 54.0992 105.597C54.0992 105.455 37.7689 105.425 33.0983 105.419Z" fill="#666666"/>
<path d="M31.3206 107.606C31.2689 107.713 31.2002 107.811 31.1172 107.896C35.3957 107.891 52.4666 107.862 52.4666 107.72C52.4666 107.578 36.0332 107.549 31.3727 107.544L31.3206 107.606Z" fill="#666666"/>
<path d="M29.584 108.516V108.604C29.584 108.604 50.0667 108.59 50.0667 108.426C50.0667 108.284 34.7604 108.255 30.6125 108.25C30.2862 108.393 29.9389 108.483 29.584 108.516Z" fill="#666666"/>
<path d="M38.5645 98.6937C42.6003 98.6881 57.4799 98.6585 57.4799 98.5177C57.4799 98.377 43.2615 98.3476 38.8515 98.3418L38.5645 98.6937Z" fill="#666666"/>
<path d="M40.8633 95.8626C44.8107 95.8568 58.8297 95.8267 58.8297 95.6867C58.8297 95.5467 45.4445 95.517 41.1503 95.5107L40.8633 95.8626Z" fill="#666666"/>
<path d="M40.2891 96.5706C44.2594 96.5648 58.4929 96.5347 58.4929 96.3947C58.4929 96.2547 44.9002 96.225 40.5766 96.2188L40.2891 96.5706Z" fill="#666666"/>
<path d="M39.7129 97.2786C43.7049 97.2729 58.1539 97.2427 58.1539 97.1027C58.1539 96.9627 44.3537 96.9328 40.0004 96.9268L39.7129 97.2786Z" fill="#666666"/>
<path d="M41.7287 94.8018L41.4414 95.1554C45.3639 95.1494 59.1704 95.1187 59.1704 94.9795C59.1704 94.8402 45.9919 94.8085 41.7287 94.8018Z" fill="#666666"/>
<path d="M37.4121 100.11C41.491 100.105 56.8026 100.075 56.8026 99.9328C56.8026 99.7908 42.1632 99.7626 37.6999 99.7568L37.4121 100.11Z" fill="#666666"/>
<path d="M36.2617 101.526C40.3826 101.52 56.1273 101.491 56.1273 101.35C56.1273 101.209 41.067 101.179 36.5503 101.174L36.2617 101.526Z" fill="#666666"/>
<path d="M36.8359 100.818C40.9362 100.812 56.4634 100.783 56.4634 100.642C56.4634 100.501 41.6138 100.471 37.1235 100.466L36.8359 100.818Z" fill="#666666"/>
<path d="M37.9863 99.401C42.0443 99.3955 57.1394 99.3655 57.1394 99.2238C57.1394 99.082 42.7123 99.0536 38.2739 99.0479L37.9863 99.401Z" fill="#666666"/>
<path d="M39.1387 97.9857C43.1531 97.9799 57.8166 97.95 57.8166 97.8097C57.8166 97.6695 43.8085 97.6398 39.4257 97.6338L39.1387 97.9857Z" fill="#666666"/>
<path d="M54.3598 48.6299L44.2656 58.0018C45.0151 58.8257 45.9332 59.4793 46.9577 59.9183C48.694 60.6901 50.5884 61.0418 52.4866 60.9448L60.918 50.4559C58.1844 50.5881 55.8428 49.8192 54.3598 48.6299Z" fill="#E8DFCB"/>
<path d="M49.9459 53.7774C52.0861 51.4869 54.3269 49.8109 54.9841 49.073C54.9491 49.0506 54.9151 49.0278 54.8804 49.0049C54.5505 49.4748 54.0829 49.8311 53.5419 50.0248C52.918 50.39 52.4786 51.0787 51.7703 51.5513C50.9748 52.1036 50.2691 52.7749 49.6783 53.5417C47.5774 56.1576 45.2117 57.6823 44.5684 58.3172C44.5935 58.3423 44.6187 58.3652 44.6439 58.3893C45.4055 57.8575 47.8561 56.3738 49.9459 53.7774Z" fill="#4F3636"/>
<path d="M58.6961 50.3594C58.4533 50.6107 58.0621 51.1245 57.528 51.7224C57.0245 52.0994 56.6594 52.9912 56.2208 53.5261C55.4884 54.1275 55.0515 54.8549 54.2264 55.5019C52.2625 57.8924 50.8996 60.0469 50.2734 60.8477C50.3185 60.8535 50.3633 60.8621 50.4081 60.8671C50.7863 60.5195 51.1277 60.1341 51.4271 59.7169C51.7796 59.2394 52.4564 58.6754 52.7696 57.8799C53.3826 57.2007 53.9567 56.4874 54.489 55.7434C55.2351 55.1706 55.8308 54.2798 56.4217 53.786C57.0512 52.9977 57.1844 52.3533 57.7174 51.8893C58.2965 51.1755 58.6271 50.6308 58.8056 50.3737C58.7683 50.3697 58.7323 50.3652 58.6961 50.3594Z" fill="#4F3636"/>
<path d="M50.8556 54.168C51.5251 53.4185 52.149 52.7102 52.8606 52.2226C53.5907 51.6403 53.95 50.927 54.4856 50.5801C54.9705 50.3129 55.3786 49.926 55.6709 49.4563C55.6307 49.4365 55.5914 49.4159 55.5519 49.3955C55.2271 49.8071 54.8142 50.141 54.3433 50.3725C53.7405 50.7327 53.3208 51.4719 52.6649 51.9595C51.9206 52.4481 51.2549 53.1835 50.5902 53.931C48.1228 57.019 45.5095 58.8141 45.5098 59.1004L45.5231 59.1095C47.5192 57.7142 49.3135 56.0515 50.8556 54.168V54.168Z" fill="#4F3636"/>
<path d="M51.8209 57.472C52.3421 56.8881 53.0116 56.0765 53.5915 55.3586C54.3012 54.7235 54.9201 53.8981 55.5302 53.4007C56.205 52.6718 56.3666 51.9952 56.913 51.5711C57.3091 51.1638 57.6608 50.7157 57.9621 50.2342C57.9183 50.2252 57.8753 50.2149 57.832 50.2051C57.4925 50.6238 57.1264 51.0201 56.7357 51.3917C56.1997 51.7546 55.8331 52.629 55.3328 53.1383C54.6049 53.7179 54.0933 54.4307 53.3306 55.1148C52.6667 55.9337 52.1414 56.5855 51.5452 57.2922C51.1675 58.0893 50.5927 58.5454 50.1947 59.1002C49.536 59.8876 49.0485 60.4072 48.8809 60.5864C48.906 60.5929 48.9327 60.6009 48.9589 60.6075C49.48 60.2052 49.9602 59.7527 50.3926 59.2565C50.7733 58.7757 51.4387 58.2468 51.8209 57.472Z" fill="#4F3636"/>
<path d="M51.7658 54.5628C52.4493 53.8565 53.0707 53.1075 53.7475 52.6181C54.4686 51.9926 54.7519 51.2795 55.2955 50.9163C55.7348 50.613 56.1092 50.2254 56.3968 49.7762C56.3522 49.7591 56.3089 49.7408 56.2649 49.7227C55.9482 50.1142 55.5684 50.4503 55.1412 50.7172C54.5548 51.0741 54.1612 51.8636 53.5509 52.3557C52.8114 52.8743 52.2023 53.6004 51.5004 54.325C50.1136 55.7911 49.0956 57.2806 48.1157 58.1382C47.1252 58.9787 46.5717 59.6045 46.6135 59.6354C46.6553 59.6664 47.2367 59.1307 48.2856 58.3244C49.329 57.4925 50.4034 56.001 51.7658 54.5628Z" fill="#4F3636"/>
<path d="M52.6773 54.96C53.3717 54.2904 53.9953 53.504 54.6359 53.0108C55.3391 52.3352 55.5541 51.636 56.1033 51.2461C56.5136 50.8974 56.8692 50.4892 57.1582 50.0352C57.1121 50.0216 57.0681 50.0063 57.0225 49.9922C56.7027 50.3871 56.3386 50.7441 55.9373 51.0564C55.3736 51.413 54.9964 52.2505 54.4402 52.7472C53.7063 53.2986 53.1463 54.0134 52.4141 54.7192C51.0482 56.2155 50.0773 57.6946 49.1573 58.6208C48.2451 59.5312 47.6889 60.1216 47.7116 60.1478C47.7537 60.195 48.3662 59.676 49.3426 58.7905C50.3072 57.9108 51.3582 56.4012 52.6773 54.96Z" fill="#4F3636"/>
<path d="M61.1768 49.2598C60.7487 49.0127 60.2955 49.4214 60.2955 49.4214L51.9364 59.8193C50.3828 59.8382 48.8435 59.521 47.4244 58.8893C46.5255 58.5096 45.7218 57.9363 45.0708 57.2103C44.9617 57.0887 52.1552 50.5193 54.3331 48.5352L54.8681 47.3805C54.9062 47.319 54.9314 47.2503 54.9421 47.1788C54.9529 47.1072 54.9489 47.0343 54.9305 46.9643C54.9121 46.8943 54.8797 46.8288 54.8352 46.7717C54.7906 46.7146 54.7349 46.6672 54.6715 46.6323C54.5623 46.5624 54.4354 46.525 54.3057 46.5244C54.176 46.5239 54.0488 46.5602 53.939 46.6292L43.1915 56.6076L21.5261 103.237C20.9868 104.425 22.3874 106.401 25.1737 107.66C27.9599 108.919 30.7821 108.796 31.3209 107.607L42.0335 94.4264L61.3704 49.8942C61.4028 49.8407 61.4235 49.7809 61.4312 49.7188C61.4389 49.6568 61.4335 49.5938 61.4152 49.5339C61.397 49.4741 61.3663 49.4188 61.3252 49.3716C61.2841 49.3243 61.2336 49.2863 61.1768 49.2598Z" fill="#E25F55"/>
<path d="M61.5397 49.109C61.5229 49.0575 61.4926 49.0114 61.4518 48.9756C61.411 48.9398 61.3614 48.9157 61.308 48.9057C60.5799 48.7249 60.1705 48.9765 59.7276 49.5275L59.2953 50.0651C59.186 50.2011 58.8859 50.003 58.6281 49.9701C57.506 49.8177 56.4225 49.4565 55.4337 48.9054C54.8516 48.5857 54.6615 48.7043 54.8564 48.2906C54.9901 48.0071 55.117 47.7193 55.2592 47.4406C55.6792 46.6232 54.6504 46.0705 53.9862 46.2019C53.29 46.3394 52.4951 47.4554 52.0165 47.8998L47.774 51.8399L43.8857 55.4502C43.5418 55.7694 43.0098 56.1097 42.8058 56.548C42.1623 57.9328 41.5189 59.3174 40.8756 60.7018L22.7088 99.7982C22.1967 100.901 21.6847 102.003 21.1729 103.106C20.3007 104.983 22.9437 106.933 24.2862 107.636C26.1255 108.599 29.8292 109.959 31.5277 108.003C33.2147 106.06 34.8452 104.054 36.4576 102.032C37.1979 101.136 37.9587 100.212 38.7403 99.2615C39.4845 98.3567 40.2459 97.4293 41.0242 96.4794L42.2023 95.0412C42.7728 94.3327 42.7955 93.8519 43.1223 93.2378C44.1443 90.9021 45.199 88.4824 46.2759 86.0021C50.5985 76.0469 54.456 67.0113 57.1906 60.4683C58.3195 57.8692 59.448 55.2701 60.5761 52.6711C60.9205 51.8738 62.2029 49.9706 61.5397 49.109ZM55.4047 49.7429C56.271 50.1598 57.187 50.4646 58.1305 50.65C58.3118 50.6877 58.6021 50.7734 58.8957 50.8202C58.7512 51.0227 58.6089 51.2195 58.4662 51.397C57.2193 52.9483 55.9724 54.4995 54.7254 56.0506L51.9641 59.486C51.5162 60.0432 49.6508 59.4176 49.0362 59.2653C48.148 59.0328 47.2991 58.6707 46.5168 58.1908C46.3532 58.0931 45.8118 57.5798 45.3853 57.2237L51.1396 51.8811L54.208 49.0336C54.5717 49.325 54.9745 49.564 55.4047 49.7436V49.7429ZM30.0654 108.017C29.3652 108.146 28.6501 108.175 27.9418 108.102C26.066 107.841 24.3127 107.021 22.9115 105.749C22.32 105.207 21.4932 104.201 21.8913 103.344L22.4238 102.198L25.4452 95.6935L35.3898 74.2967L43.0397 57.8307C43.1621 57.5672 43.2846 57.3038 43.4073 57.0402C44.2756 58.474 45.5954 59.58 47.1604 60.1853C49.8041 61.2997 52.1897 61.0323 52.4604 60.9574C52.1056 61.2869 48.9642 67.8535 44.6524 77.3596C40.8535 85.7324 33.7051 101.774 31.7976 106.355C31.5061 106.694 31.2674 107.063 31.0254 107.369C30.77 107.668 30.4382 107.892 30.0654 108.017V108.017ZM60.9961 50.0568L59.9356 51.3761C59.0926 52.3466 57.9528 53.7159 56.7198 55.2501C54.2657 58.3034 52.3698 60.8528 52.4851 60.9451C52.6004 61.0373 54.6831 58.638 57.1373 55.5846C58.3483 54.0783 59.4229 52.6942 60.1871 51.6682L59.5451 53.1471L56.4919 60.1785C53.5783 66.643 49.6117 75.6269 45.2912 85.5771C44.2143 88.0571 43.1664 90.4801 42.1575 92.8213C41.8991 93.3296 41.669 94.1592 41.3948 94.389L40.2278 95.8362C39.4582 96.7913 38.7061 97.7262 37.9716 98.641C36.5042 100.468 35.1123 102.207 33.8129 103.837C33.2769 104.509 32.7607 105.158 32.2571 105.791C34.7624 100.62 41.661 85.6656 45.2962 77.6512C49.7474 67.8372 52.6633 61.0257 52.4851 60.9451C52.4999 60.7943 50.0176 61.0107 47.2984 59.8575C45.8482 59.2777 44.5809 58.3193 43.6291 57.0827C43.5808 57.038 43.5434 56.983 43.5196 56.9217C43.4959 56.8605 43.4864 56.7946 43.4921 56.7291C43.4977 56.6637 43.5182 56.6004 43.552 56.544C43.5858 56.4877 43.6321 56.4398 43.6873 56.404L54.0252 46.8059C54.3596 46.4958 54.6799 47.2274 54.3825 47.5044L53.353 48.4595L49.9481 51.6224L44.5738 56.6121C44.5364 56.6449 44.5132 56.691 44.5091 56.7406C44.505 56.7901 44.5203 56.8393 44.5519 56.8778C45.7841 58.4057 47.4139 59.2495 49.3068 59.718C50.0194 59.8939 51.6809 60.4389 52.2275 59.7597L56.4295 54.5318L60.3918 49.6052C60.6788 49.2462 61.3453 49.6235 60.9961 50.0568Z" fill="#4F3636"/>
<path d="M60.1799 52.2975C60.2554 52.3583 56.5137 57.1798 54.6732 59.4884C52.8326 61.797 51.5055 63.334 51.4292 63.2739C51.3529 63.2139 52.5557 61.5771 54.3962 59.2685C56.2367 56.9599 60.1034 52.2366 60.1799 52.2975Z" fill="#4F3636"/>
<path d="M58.9817 55.0572C59.0572 55.118 55.2623 60.0037 53.3961 62.3429C51.5299 64.6822 50.1851 66.2415 50.1089 66.1807C50.0326 66.1199 51.2532 64.4625 53.1194 62.123C54.9856 59.7835 58.9051 54.9964 58.9817 55.0572Z" fill="#4F3636"/>
<path d="M57.7825 57.817C57.858 57.8778 54.0098 62.8273 52.1174 65.1977C50.225 67.5681 48.8628 69.1484 48.7865 69.0873C48.7103 69.0262 49.9485 67.348 51.8407 64.9775C53.7328 62.6071 57.7062 57.7554 57.7825 57.817Z" fill="#4F3636"/>
<path d="M56.5837 60.5758C56.6592 60.6366 52.7566 65.6499 50.84 68.0513C48.9234 70.4526 47.5417 72.0539 47.4661 71.9931C47.3906 71.9323 48.6457 70.2324 50.563 67.8311C52.4804 65.4297 56.5071 60.5147 56.5837 60.5758Z" fill="#4F3636"/>
<path d="M55.386 63.3355C55.4615 63.3963 51.5068 68.4737 49.5635 70.906C47.6203 73.3383 46.2221 74.9609 46.1458 74.8999C46.0695 74.8388 47.3433 73.1178 49.2866 70.6856C51.2298 68.2533 55.3094 63.2752 55.386 63.3355Z" fill="#4F3636"/>
<path d="M54.1858 66.0953C54.2613 66.1561 50.2535 71.2981 48.2845 73.7613C46.3156 76.2245 44.8998 77.8683 44.8235 77.8079C44.7472 77.7476 46.0386 76.003 48.0078 73.5398C49.977 71.0767 54.1095 66.0344 54.1858 66.0953Z" fill="#4F3636"/>
<path d="M52.9864 68.8541C53.0619 68.9149 49.0004 74.1202 47.0058 76.6143C45.0111 79.1084 43.5775 80.7733 43.5012 80.7112C43.4249 80.6492 44.7349 78.8865 46.7291 76.3924C48.7232 73.8983 52.9088 68.7932 52.9864 68.8541Z" fill="#4F3636"/>
<path d="M51.7862 71.6138C51.8617 71.6746 47.7473 76.9438 45.7265 79.4688C43.7057 81.9938 42.2552 83.6801 42.1789 83.619C42.1026 83.5579 43.4295 81.7731 45.4501 79.2481C47.4706 76.7231 51.7096 71.5537 51.7862 71.6138Z" fill="#4F3636"/>
<path d="M50.5862 74.3736C50.6618 74.4344 46.494 79.7674 44.4478 82.3234C42.4015 84.8793 40.9329 86.5867 40.8566 86.5258C40.7803 86.465 42.1251 84.6586 44.1713 82.1022C46.2175 79.5457 50.5097 74.3125 50.5862 74.3736Z" fill="#4F3636"/>
<path d="M49.3885 77.1333C49.464 77.1944 45.2432 82.5915 43.1707 85.1781C41.0983 87.7647 39.6125 89.4937 39.5363 89.4329C39.46 89.3721 40.8224 87.5443 42.8945 84.9575C44.9667 82.3706 49.3114 77.0715 49.3885 77.1333Z" fill="#4F3636"/>
<path d="M48.1886 79.8921C48.2641 79.9532 43.9898 85.4139 41.892 88.0317C39.7941 90.6494 38.2902 92.3995 38.2139 92.3384C38.1377 92.2774 39.5177 90.4282 41.6155 87.811C43.7134 85.1937 48.112 79.8313 48.1886 79.8921Z" fill="#4F3636"/>
<path d="M46.9906 82.6519C47.0661 82.7127 42.7385 88.2375 40.6152 90.8862C38.4919 93.5348 36.9699 95.3061 36.8936 95.2452C36.8173 95.1844 38.2152 93.3142 40.3387 90.6655C42.4623 88.0168 46.914 82.5908 46.9906 82.6519Z" fill="#4F3636"/>
<path d="M45.7904 85.4107C45.8659 85.4715 41.4849 91.0604 39.3362 93.7397C37.1875 96.4191 35.6473 98.2119 35.5713 98.1508C35.4952 98.0897 36.9105 96.1986 39.0597 93.519C41.2089 90.8395 45.7143 85.3496 45.7904 85.4107Z" fill="#4F3636"/>
<path d="M44.5909 88.1704C44.6665 88.2315 40.2323 93.8842 38.0574 96.5947C35.8825 99.3052 34.325 101.119 34.249 101.058C34.1729 100.997 35.6058 99.0843 37.7812 96.3738C39.9566 93.6633 44.5147 88.1096 44.5909 88.1704Z" fill="#4F3636"/>
<path d="M43.3916 90.9302C43.4671 90.9913 38.9801 96.7078 36.779 99.4493C34.5779 102.191 33.0035 104.026 32.9267 103.965C32.8499 103.904 34.3015 101.97 36.502 99.2283C38.7026 96.4869 43.3153 90.8691 43.3916 90.9302Z" fill="#4F3636"/>
<path d="M44.229 59.5207C44.086 59.3981 43.8408 59.1302 43.8408 59.1302C43.8118 59.0702 43.7658 59.0201 43.7085 58.9861C43.6512 58.952 43.5851 58.9356 43.5185 58.9389C43.3007 58.964 43.2458 59.3202 43.0947 59.6296C42.9437 59.939 42.704 60.4321 42.497 60.8599C42.0831 61.7145 41.6387 62.6394 41.1676 63.6247C40.2254 65.5978 39.1757 67.8191 38.0455 70.2351C33.5308 79.893 24.3387 99.9254 24.5162 100.008C24.6937 100.091 34.1723 80.1918 38.6883 70.5339C39.817 68.1195 40.8491 65.8893 41.7588 63.9014C42.2137 62.9074 42.638 61.9736 43.029 61.1077C43.2244 60.6747 43.4112 60.2589 43.5895 59.8603L43.665 59.6922C43.7405 59.7648 43.8194 59.8327 43.8992 59.8963C46.5144 61.8366 48.5886 61.4546 48.6579 61.4579C48.7276 61.2507 46.6295 61.4747 44.229 59.5207Z" fill="#FEB337"/>
<path d="M128.461 52.1294C127.774 52.9337 125.601 53.6353 121.732 53.6353C118.159 53.6353 116.258 53.0572 115.948 52.3164C115.223 52.9951 112.872 53.6353 109.339 53.6353C105.781 53.6353 103.897 53.0484 103.616 52.2999C102.857 52.9953 100.432 53.6353 96.7135 53.6353C92.7175 53.6353 90.6866 52.9566 90.6866 52.1294H90.6194C89.9962 53.1187 87.8674 53.6353 84.1584 53.6353C80.7495 53.6353 78.941 53.0624 78.6293 52.3265C77.6304 53.1811 75.3561 53.6353 71.6076 53.6353C67.5307 53.6353 65.4542 52.9566 65.4542 52.1294H65.4409C64.7077 53.1803 62.6929 53.6353 58.9897 53.6353C55.2865 53.6353 53.4238 52.9566 53.4238 52.1294L63.2839 43.0308C64.9068 43.286 66.5472 43.4146 68.1901 43.4156C70.0052 43.4156 73.0963 43.0308 73.0963 43.0308C74.7605 43.3056 76.4433 43.4534 78.13 43.4731C80.1115 43.4297 82.0893 43.2821 84.0552 43.0308C85.5303 43.3182 87.0292 43.4664 88.5321 43.4731C90.3293 43.4367 92.1225 43.2888 93.9014 43.0303C95.5198 43.3243 97.1614 43.4724 98.8063 43.4726C100.746 43.4431 102.682 43.2954 104.603 43.0303C106.206 43.332 107.835 43.4801 109.466 43.4726C111.391 43.4485 113.313 43.3007 115.22 43.0303C116.716 43.3132 118.235 43.4613 119.758 43.4726C121.575 43.4334 123.388 43.2856 125.188 43.0303L128.461 52.1294Z" fill="#E8DFCB"/>
<path d="M74.726 43.2581L74.6384 43.248C74.2549 43.7216 73.0881 45.6796 71.0263 47.5981C69.1004 49.6805 67.6076 51.6425 67.5137 52.1368L67.5784 52.1492C67.846 51.7091 69.36 49.9336 71.307 47.8177C72.7134 46.5166 73.8718 44.9718 74.726 43.2581V43.2581Z" fill="#4F3636"/>
<path d="M75.75 43.3609L75.6319 43.3506C74.6236 44.8725 73.4841 46.3037 72.2263 47.6277C70.172 49.9949 68.6525 52.1881 68.8633 52.2876C68.8457 52.2577 70.4054 50.2769 72.5171 47.8343C73.8178 46.5172 74.9082 45.0085 75.75 43.3609V43.3609Z" fill="#4F3636"/>
<path d="M77.8438 43.4703L77.6977 43.4678C77.2193 44.1281 76.1407 45.8028 74.623 47.6969C72.7787 50.1194 71.4485 52.3405 71.5119 52.3573C71.6351 52.4177 73.0226 50.3926 74.9339 47.8716C76.0438 46.5016 77.0183 45.0276 77.8438 43.4703V43.4703Z" fill="#4F3636"/>
<path d="M76.7869 43.4343C76.7414 43.432 76.6965 43.4295 76.6515 43.4268C75.6639 44.9031 74.5859 46.3171 73.4236 47.6607C71.4766 50.0597 70.0525 52.2603 70.1865 52.3226C70.2421 52.3357 71.7153 50.337 73.7245 47.8527C74.9254 46.5127 75.9541 45.0285 76.7869 43.4343V43.4343Z" fill="#4F3636"/>
<path d="M78.9342 43.459L78.7904 43.4633C78.3223 44.1012 77.2163 45.752 75.8194 47.7361C74.078 50.1772 72.8408 52.4285 72.834 52.3913C73.0236 52.5076 74.3281 50.4491 76.1409 47.8907C77.1658 46.4745 78.0988 44.9942 78.9342 43.459V43.459Z" fill="#4F3636"/>
<path d="M79.338 44.6124C79.6161 44.2369 79.8539 43.8333 80.0475 43.4082L79.9216 43.4152C79.7678 43.6344 79.511 44.0004 79.125 44.4762C78.6615 45.4021 77.7865 46.363 77.0176 47.7819C75.559 49.9515 74.5028 52.008 74.2266 52.3712L74.3346 52.3619C74.786 51.9798 75.8793 50.1249 77.3484 47.9156C78.026 46.6626 78.9633 45.512 79.338 44.6124Z" fill="#4F3636"/>
<path d="M81.0576 43.3366C80.7938 43.7316 80.5066 44.1105 80.1978 44.4715C79.7529 45.4047 78.9064 46.3714 78.2168 47.8287C77.0291 49.7095 76.1398 51.5317 75.7246 52.2003C75.7911 52.1898 75.854 52.1782 75.9185 52.1671C76.4538 51.5028 77.3715 49.8429 78.5546 47.9405C79.1501 46.674 80.0593 45.4982 80.4085 44.6087C80.718 44.2209 80.9686 43.7897 81.1523 43.3291L81.0576 43.3366Z" fill="#4F3636"/>
<path d="M99.9132 43.4494C99.4789 44.8667 99.1496 46.314 98.928 47.7796C98.5226 49.9147 98.2804 51.7641 98.3066 52.4179L98.4204 52.4113C98.5367 51.7669 98.8736 49.9821 99.2805 47.8338C99.5696 45.8786 99.9603 44.2145 100.07 43.4434C100.018 43.4457 99.9654 43.4477 99.9132 43.4494Z" fill="#4F3636"/>
<path d="M100.764 43.409C100.373 44.8278 100.095 46.2753 99.9331 47.7379C99.5554 49.8384 99.3971 51.6712 99.4434 52.3309L99.5605 52.3186C99.6551 51.6636 99.9069 49.9009 100.287 47.7821C100.498 45.8249 100.832 44.1627 100.917 43.3994L100.764 43.409Z" fill="#4F3636"/>
<path d="M101.946 47.6482C101.7 49.0707 101.616 50.5164 101.695 51.9578C101.75 51.9439 101.8 51.9294 101.853 51.9153C101.929 50.4949 102.078 49.0793 102.301 47.6744C102.349 45.6636 102.6 43.9768 102.625 43.2607L102.485 43.2743C102.17 44.7124 101.989 46.1767 101.946 47.6482V47.6482Z" fill="#4F3636"/>
<path d="M101.623 43.35C101.269 44.7756 101.04 46.2291 100.938 47.6942C100.664 49.1745 100.542 50.6787 100.573 52.1837C100.617 52.1767 100.662 52.1696 100.705 52.1623C100.781 51.4541 100.952 49.7555 101.293 47.7289C101.422 45.7548 101.715 44.0831 101.772 43.3379L101.623 43.35Z" fill="#4F3636"/>
<path d="M99.0648 43.4705C98.5862 44.8937 98.2044 46.3476 97.9222 47.8223C97.4982 49.9441 97.1772 51.7706 97.1699 52.4568C97.21 52.4568 97.251 52.4568 97.2903 52.4568C97.4366 51.7842 97.849 50.016 98.2722 47.8871C98.6439 45.9191 99.0865 44.2426 99.2187 43.4697L99.0648 43.4705Z" fill="#4F3636"/>
<path d="M97.5411 43.4401C97.4953 43.4379 97.4487 43.4361 97.4037 43.4336C96.8197 44.8934 96.3211 46.3857 95.9101 47.903C95.6238 49.3118 95.3249 50.4818 95.0825 51.4075C95.0168 51.7386 94.969 52.0729 94.9395 52.4091L95.0928 52.4182C95.1497 52.1754 95.2245 51.8539 95.3287 51.463C95.7094 50.3239 96.0195 49.1624 96.2573 47.9852C96.8127 45.9224 97.387 44.172 97.5411 43.4401Z" fill="#4F3636"/>
<path d="M98.3754 43.4679C98.3251 43.4679 98.2755 43.4669 98.2266 43.4648C97.698 44.9023 97.2599 46.3714 96.9148 47.8634C96.4818 49.934 96.0922 51.7115 96.0371 52.4547C96.0809 52.4547 96.128 52.4547 96.1723 52.4547C96.3594 51.727 96.8325 50.0016 97.264 47.935C97.723 45.9356 98.2269 44.2299 98.3754 43.4679Z" fill="#4F3636"/>
<path d="M96.7154 43.3889L96.5961 43.3799C95.9491 44.8685 95.3841 46.3913 94.9036 47.9415C94.5847 49.3698 94.2803 50.5461 93.9904 51.4704C93.9149 51.7972 93.8645 52.0804 93.832 52.3129C93.8902 52.3195 93.9468 52.327 94.0068 52.3333C94.0654 52.1128 94.1387 51.8454 94.2334 51.5353C94.6557 50.3939 94.9948 49.2235 95.2481 48.0333C95.911 45.8823 96.5722 44.0678 96.7154 43.3889Z" fill="#4F3636"/>
<path d="M95.8927 43.3145L95.8008 43.3047C95.5432 43.8529 94.7 45.6852 93.8915 47.9762C93.6251 49.1791 93.293 50.3667 92.8967 51.5335C92.8358 51.7584 92.7885 51.963 92.752 52.1455C92.8167 52.1586 92.8821 52.1706 92.9501 52.1839C93.0032 52.0115 93.0649 51.819 93.1382 51.6071C93.6039 50.4649 93.9702 49.2847 94.2329 48.0797C95.0374 45.7995 95.7912 43.8921 95.8927 43.3145Z" fill="#4F3636"/>
<path d="M90.6268 43.3867L90.5009 43.3958C90.1424 43.9942 89.4794 45.7584 88.6196 47.8056C87.7811 50.1207 86.7224 51.8927 86.6504 52.3658C86.6796 52.3632 86.7065 52.3597 86.7352 52.357C87.6225 50.9626 88.3649 49.4814 88.9509 47.9366C89.8339 45.8346 90.4092 43.9915 90.6268 43.3867Z" fill="#4F3636"/>
<path d="M89.6403 43.4453L89.497 43.4516C89.1213 44.1129 88.436 45.8142 87.5054 47.7677C86.4602 50.3181 85.2874 52.2602 85.4367 52.4392H85.4501C86.3702 50.9965 87.168 49.4796 87.8352 47.9044C88.5148 46.4507 89.1173 44.9622 89.6403 43.4453V43.4453Z" fill="#4F3636"/>
<path d="M89.7348 47.8443C89.2186 49.1071 88.8198 50.3719 88.4328 51.1327C88.1971 51.4567 88.0209 51.8198 87.9121 52.2052C87.9602 52.1971 88.0101 52.1893 88.0566 52.18C88.22 51.8558 88.4174 51.5499 88.6455 51.2674C89.1411 50.4337 89.5318 49.2783 90.0699 47.966C90.9008 45.6976 91.4413 43.7597 91.6226 43.3008L91.5242 43.3103C91.1873 43.7801 90.5407 45.6428 89.7348 47.8443Z" fill="#4F3636"/>
<path d="M85.8318 43.3065C85.7933 43.302 85.753 43.2977 85.7152 43.293C85.3335 43.8851 84.4787 45.6601 83.0436 47.598C81.7965 49.7658 80.7574 51.6122 80.5469 52.1566L80.638 52.1757C81.0008 51.6786 82.1125 49.932 83.3573 47.7694C84.3682 46.3925 85.1998 44.8928 85.8318 43.3065V43.3065Z" fill="#4F3636"/>
<path d="M88.6636 43.4717H88.5307H88.5138C88.1248 44.1606 87.4092 45.8343 86.3875 47.7257C85.218 50.3186 84.0228 52.3283 84.2111 52.42C85.1573 50.9679 85.9936 49.4472 86.7131 47.8707C87.4672 46.4525 88.119 44.9824 88.6636 43.4717V43.4717Z" fill="#4F3636"/>
<path d="M87.7028 43.4555C87.6524 43.4537 87.6051 43.4515 87.5562 43.4492C87.1594 44.1359 86.4051 45.8119 85.2716 47.6844C84.0021 50.2634 82.8129 52.3061 82.9783 52.3883C83.9529 50.9331 84.8266 49.4131 85.5934 47.839C86.4265 46.4438 87.1325 44.9767 87.7028 43.4555Z" fill="#4F3636"/>
<path d="M86.7592 43.3983C86.7134 43.3948 86.6693 43.3907 86.6245 43.3867C86.2284 44.0417 85.431 45.7516 84.1583 47.6412C82.8072 50.1446 81.6719 52.1984 81.7434 52.3431L81.759 52.3449C81.8867 52.2381 83.1227 50.3113 84.4755 47.8038C85.3945 46.4223 86.1602 44.9451 86.7592 43.3983V43.3983Z" fill="#4F3636"/>
<path d="M120.497 43.459L120.342 43.4635C120.523 44.9151 120.793 46.3543 121.149 47.7731C121.812 50.3348 122.342 52.4172 122.333 52.4546H122.336C122.543 52.4091 122.162 50.2581 121.493 47.6763C121.057 45.8194 120.68 44.2218 120.497 43.459Z" fill="#4F3636"/>
<path d="M122.09 43.3672L121.949 43.378C122.008 44.12 122.369 45.7994 122.938 47.7142C123.824 50.2347 124.474 52.2681 124.423 52.2867C124.675 52.267 124.158 50.105 123.275 47.5991C122.718 45.7092 122.274 44.085 122.09 43.3672Z" fill="#4F3636"/>
<path d="M121.298 43.4219L121.148 43.4304C121.344 44.8873 121.643 46.3285 122.045 47.7427C122.821 50.2946 123.414 52.3592 123.379 52.372C123.615 52.3542 123.163 50.1913 122.385 47.6367C121.892 45.7709 121.483 44.1666 121.298 43.4219Z" fill="#4F3636"/>
<path d="M122.882 43.2988L122.754 43.3109C122.797 44.0129 123.192 45.7281 123.834 47.6883C124.779 50.0444 125.46 51.9654 125.474 52.1791L125.512 52.172C125.665 51.9044 125.093 49.8634 124.169 47.5639C123.539 45.6308 123.056 43.9752 122.882 43.2988Z" fill="#4F3636"/>
<path d="M125.062 47.5306C124.346 45.5399 123.82 43.8358 123.668 43.2178L123.557 43.2298C123.569 43.8755 123.999 45.6427 124.732 47.6661C125.659 49.7208 126.35 51.4375 126.497 51.9535L126.589 51.9284C126.581 51.3566 125.966 49.529 125.062 47.5306Z" fill="#4F3636"/>
<path d="M118.872 43.4524C118.82 43.4501 118.77 43.4471 118.719 43.4443C118.766 44.2202 119.01 45.899 119.36 47.8391C119.727 49.9843 120.067 51.8189 120.189 52.4193C120.223 52.4214 120.257 52.4234 120.29 52.4249C120.319 51.8292 120.086 49.97 119.706 47.7599C119.366 45.8557 119.042 44.2197 118.872 43.4524Z" fill="#4F3636"/>
<path d="M119.686 43.4705C119.634 43.4705 119.582 43.4693 119.529 43.4688C119.693 44.926 119.935 46.3734 120.254 47.8047C120.749 50.1105 121.174 52.0399 121.265 52.4563H121.33C121.408 52.0388 121.105 50.067 120.6 47.716C120.211 45.8495 119.863 44.2416 119.686 43.4705Z" fill="#4F3636"/>
<path d="M117.218 43.3251L117.088 43.3105C117.102 44.0118 117.331 45.8016 117.577 47.9129C117.745 49.7168 117.912 51.3239 118.026 52.1694C118.082 52.1805 118.143 52.1903 118.202 52.2009C118.201 51.3684 118.107 49.747 117.929 47.8508C117.689 45.786 117.37 44.0304 117.218 43.3251Z" fill="#4F3636"/>
<path d="M118.056 43.402C118.005 43.3982 117.959 43.3939 117.91 43.3896C117.944 44.1437 118.165 45.8692 118.47 47.8736C118.732 49.8593 118.979 51.5898 119.107 52.3295L119.246 52.3443C119.183 50.8242 119.041 49.3085 118.82 47.8033C118.521 45.838 118.218 44.1522 118.056 43.402Z" fill="#4F3636"/>
<path d="M108.054 43.4336C108.016 44.1766 108.003 45.8196 107.878 47.7507C107.749 50.0746 107.795 51.9821 107.818 52.4189L107.889 52.4229C108.028 51.9881 108.107 50.0528 108.233 47.7713C108.335 46.329 108.324 44.8809 108.2 43.4404C108.153 43.4381 108.102 43.4361 108.054 43.4336Z" fill="#4F3636"/>
<path d="M111.654 43.3955L111.51 43.4046C111.501 44.1365 111.593 45.781 111.607 47.7277C111.621 50.0401 111.72 51.9143 111.714 52.3544L111.79 52.3471C111.95 51.8897 111.977 49.9709 111.962 47.7189C111.956 46.2725 111.853 44.8282 111.654 43.3955V43.3955Z" fill="#4F3636"/>
<path d="M110.644 43.4474C110.632 44.198 110.699 45.8206 110.659 47.7369C110.659 50.1684 110.744 52.1241 110.738 52.4245L110.788 52.4214C110.964 52.1123 111.019 50.1128 111.016 47.7314C111.049 46.2979 110.975 44.8639 110.795 43.4414L110.644 43.4474Z" fill="#4F3636"/>
<path d="M109.78 43.4698C109.761 44.2298 109.799 45.8455 109.727 47.7426C109.689 50.2124 109.765 52.2022 109.766 52.4564H109.806C109.98 52.2068 110.048 50.1744 110.084 47.7447C110.142 46.3173 110.092 44.8875 109.933 43.4678C109.883 43.4685 109.831 43.4693 109.78 43.4698Z" fill="#4F3636"/>
<path d="M107.194 43.377C107.146 44.088 107.111 45.7672 106.961 47.7546C106.835 49.2804 106.795 50.8119 106.841 52.3422C106.874 52.3457 106.904 52.3497 106.938 52.353C107.058 51.7922 107.145 49.9436 107.315 47.7878C107.438 46.3239 107.443 44.8526 107.332 43.3878L107.194 43.377Z" fill="#4F3636"/>
<path d="M108.917 43.4658C108.889 44.2239 108.9 45.8458 108.801 47.7477C108.719 50.1833 108.783 52.1546 108.795 52.4557C108.81 52.4557 108.827 52.4557 108.842 52.4557C109.002 52.1568 109.077 50.1516 109.158 47.7573C109.239 46.3272 109.209 44.8929 109.07 43.4673C109.019 43.4671 108.967 43.4668 108.917 43.4658Z" fill="#4F3636"/>
<path d="M106.344 43.2939C106.291 43.9444 106.212 45.6787 106.045 47.7563C105.887 49.2331 105.825 50.7184 105.858 52.2031C105.902 52.2109 105.943 52.2192 105.987 52.2267C106.094 51.537 106.191 49.798 106.398 47.8031C106.54 46.3086 106.562 44.8053 106.466 43.3073L106.344 43.2939Z" fill="#4F3636"/>
<path d="M113.853 47.6942C113.716 45.6621 113.506 43.8946 113.378 43.252L113.261 43.2635C113.249 43.9075 113.36 45.6337 113.496 47.7093C113.483 48.8257 113.54 49.9419 113.669 51.0509C113.697 51.3881 113.694 51.7271 113.662 52.0638C113.712 52.0528 113.76 52.0412 113.81 52.0302C113.889 51.7079 113.927 51.3767 113.922 51.0449C113.902 50.1571 113.818 49.0304 113.853 47.6942Z" fill="#4F3636"/>
<path d="M112.905 47.7067C112.861 46.2421 112.732 44.7814 112.516 43.332L112.383 43.3428C112.374 44.0401 112.48 45.7158 112.549 47.7193C112.537 48.835 112.58 49.9508 112.68 51.0621C112.708 51.4558 112.7 51.8512 112.657 52.2435C112.693 52.2384 112.73 52.2339 112.766 52.2284C112.882 51.8506 112.939 51.4567 112.932 51.0614C112.936 50.1754 112.871 49.0416 112.905 47.7067Z" fill="#4F3636"/>
<path d="M70.018 43.335L69.7982 43.3505C69.3709 43.6323 68.9851 43.9723 68.6521 44.3607C67.7575 45.6602 66.7345 46.8669 65.5985 47.9625C63.9548 49.8518 62.4899 51.4408 61.7754 52.3449C61.8663 52.3359 61.9579 52.3271 62.0456 52.317C62.8764 51.4509 64.3252 49.9682 65.8585 48.2065C67.0051 47.105 68.01 45.8654 68.85 44.5163C69.1941 44.0804 69.5859 43.6842 70.018 43.335V43.335Z" fill="#4F3636"/>
<path d="M61.1803 48.009C63.462 45.7956 65.3302 43.8381 65.9066 43.3294L65.757 43.3184C65.0089 43.812 63.1445 45.6084 60.9215 47.7634C58.8458 50.1881 56.5881 51.6919 56.0508 52.2785C56.0938 52.2848 56.1414 52.2899 56.1857 52.2959C56.9126 51.7771 59.1515 50.3731 61.1803 48.009Z" fill="#4F3636"/>
<path d="M60.0076 47.9625C62.5224 45.5847 64.6328 43.531 65.0012 43.2515L64.9004 43.2412C64.3015 43.5277 62.2315 45.3749 59.7487 47.7169C57.7848 50.0217 55.5822 51.4081 54.8438 52.0265C54.8941 52.041 54.95 52.0544 55.0031 52.0684C56.8824 50.9784 58.5724 49.5918 60.0076 47.9625V47.9625Z" fill="#4F3636"/>
<path d="M63.5222 48.1051C64.7857 46.733 66.0733 45.5773 66.7513 44.5425C67.0857 44.1224 67.4682 43.7428 67.8909 43.4114C67.8186 43.4114 67.7454 43.4114 67.6738 43.4092C67.2593 43.6793 66.8842 44.0053 66.5592 44.3781C65.8265 45.379 64.5394 46.4718 63.2634 47.859C61.3284 50.1128 59.4033 51.748 58.8086 52.4586C58.8685 52.4586 58.9247 52.4606 58.9848 52.4606C60.6129 51.1338 62.1304 49.6772 63.5222 48.1051V48.1051Z" fill="#4F3636"/>
<path d="M62.3511 48.0558C64.4962 45.9236 66.2013 43.9996 66.8469 43.384L66.6706 43.376C65.876 43.9747 64.1548 45.7585 62.0917 47.8104C60.0462 50.1942 57.9182 51.7907 57.3965 52.4128C57.4443 52.4158 57.4909 52.4191 57.5395 52.4219C58.2533 51.8558 60.3705 50.3611 62.3511 48.0558Z" fill="#4F3636"/>
<path d="M64.6918 48.1556C65.9728 46.8255 67.166 45.557 67.801 44.5259C68.1247 44.1072 68.4978 43.729 68.9121 43.3994C68.8331 43.4027 68.7555 43.4052 68.679 43.4077C68.2782 43.6764 67.9168 43.9993 67.6049 44.3671C66.8931 45.3913 65.7349 46.5538 64.4324 47.911C62.6362 49.9995 60.9327 51.6309 60.2637 52.4425C60.3392 52.44 60.4105 52.4363 60.4842 52.4332C61.9649 51.0861 63.3695 49.658 64.6918 48.1556V48.1556Z" fill="#4F3636"/>
<path d="M121.731 52.4613C125.601 52.4613 127.774 51.7593 128.461 50.9555L125.188 41.8569C125.116 41.7328 125.003 41.638 124.868 41.5893C124.734 41.5406 124.586 41.5412 124.452 41.5909C124.031 41.738 124.121 42.2391 124.121 42.2391L127.11 50.5476C126.334 50.9158 124.676 51.3308 121.732 51.3308C118.78 51.3308 117.457 50.9218 117.048 50.6871L116.348 41.8041C116.324 41.6561 116.25 41.5209 116.138 41.4209C116.026 41.321 115.883 41.2624 115.733 41.2549C115.663 41.2557 115.594 41.2705 115.53 41.2983C115.465 41.3261 115.407 41.3664 115.358 41.4169C115.31 41.4674 115.272 41.527 115.247 41.5923C115.221 41.6576 115.209 41.7273 115.211 41.7973L115.948 51.143C116.257 51.8832 118.159 52.4613 121.731 52.4613Z" fill="#CB9972"/>
<path d="M109.339 52.4616C112.872 52.4616 115.223 51.8216 115.948 51.1428L115.212 41.797C115.201 41.7276 115.176 41.661 115.139 41.6011C115.102 41.5412 115.054 41.4891 114.997 41.4479C114.94 41.4067 114.875 41.3771 114.807 41.3608C114.738 41.3446 114.667 41.3419 114.598 41.3531C114.528 41.3531 114.46 41.367 114.396 41.394C114.332 41.421 114.275 41.4605 114.227 41.5102C114.179 41.5599 114.141 41.6188 114.116 41.6833C114.091 41.7478 114.08 41.8167 114.082 41.8857L114.765 50.5533C113.982 50.8967 112.203 51.3305 109.339 51.3305C106.585 51.3305 105.271 50.9668 104.798 50.7305L105.735 41.9161C105.735 41.9161 105.706 41.3778 105.261 41.3285C104.816 41.2792 104.609 41.797 104.609 41.797L103.617 51.1262C103.897 51.8747 105.782 52.4616 109.339 52.4616Z" fill="#FFF21A"/>
<path d="M96.7144 52.4623C100.433 52.4623 102.858 51.8224 103.617 51.1269L104.609 41.7978C104.606 41.6651 104.551 41.5388 104.456 41.4464C104.36 41.3541 104.232 41.3031 104.099 41.3046C103.952 41.2965 103.807 41.3421 103.692 41.4328C103.576 41.5236 103.497 41.6533 103.47 41.7978L102.547 50.4785C101.854 50.8127 100.07 51.3313 96.7149 51.3313C93.9143 51.3313 92.5147 50.9899 91.962 50.7504L94.989 42.1735C94.989 42.1735 95.0841 41.6161 94.6397 41.5175C94.5056 41.4935 94.3674 41.507 94.2405 41.5564C94.1135 41.6059 94.0028 41.6894 93.9204 41.7978L90.6875 50.9565C90.6875 51.7847 92.7189 52.4623 96.7144 52.4623Z" fill="#FEB337"/>
<path d="M84.159 52.4619C87.868 52.4619 89.9968 51.9454 90.62 50.9561L93.9206 41.7974C93.8998 41.6797 93.8403 41.5722 93.7516 41.4918C93.6629 41.4115 93.55 41.3628 93.4306 41.3535C93.0107 41.3284 92.7166 41.7974 92.7166 41.7974L89.6121 50.4155C89.3946 50.6397 88.3811 51.3319 84.16 51.3319C81.972 51.3319 80.7305 51.0866 80.1093 50.8702L85.0863 42.3689C85.0863 42.3689 85.3031 41.8635 84.8834 41.6652C84.7549 41.612 84.6139 41.5962 84.4768 41.6196C84.3396 41.643 84.2119 41.7046 84.1084 41.7974L78.6309 51.1532C78.9426 51.8891 80.7511 52.4619 84.159 52.4619Z" fill="#6AAEA2"/>
<path d="M71.6084 52.4622C75.3562 52.4622 77.6313 52.0073 78.6301 51.1534L84.1079 41.7976C84.0944 41.6778 84.0381 41.5669 83.9492 41.4853C83.8603 41.4037 83.7449 41.3569 83.6242 41.3535C83.1795 41.3284 82.7956 41.7976 82.7956 41.7976L77.763 50.3926C77.1917 50.782 75.6664 51.3311 71.6081 51.3311C69.1324 51.3311 67.7239 51.075 67.0186 50.8491L74.0152 42.4386C74.0765 42.3375 74.0981 42.2173 74.0759 42.1012C74.0536 41.9852 73.989 41.8815 73.8946 41.8102C73.5539 41.5214 73.0947 41.7984 73.0947 41.7984L65.4551 50.9564C65.4551 51.7846 67.5315 52.4622 71.6084 52.4622Z" fill="#99BE51"/>
<path d="M58.9897 52.4623C62.6929 52.4623 64.7077 52.0074 65.4409 50.9565L72.9606 41.9584C72.9771 41.9011 72.9797 41.8407 72.9682 41.7822C72.9568 41.7237 72.9316 41.6687 72.8947 41.6218C72.8578 41.5749 72.8104 41.5374 72.7562 41.5124C72.702 41.4874 72.6426 41.4755 72.583 41.4778C72.4325 41.4677 72.2817 41.4921 72.142 41.549C72.0024 41.6059 71.8776 41.6939 71.7773 41.8063C71.7773 41.8063 64.6312 50.3581 64.6146 50.3819C64.2724 50.8723 63.0188 51.4569 58.9897 51.4569C56.7693 51.4569 55.5098 51.2094 54.8746 50.9867L63.9675 42.5955C63.9675 42.5955 64.3321 42.1268 64.0035 41.8435C63.9042 41.7541 63.7746 41.7058 63.6409 41.7083C63.5073 41.7109 63.3796 41.7642 63.2839 41.8573L53.4238 50.956C53.4238 51.7847 55.2868 52.4623 58.9897 52.4623Z" fill="#B172B6"/>
<path d="M121.732 52.4619C118.219 52.4619 116.326 51.9026 115.969 51.18V106.427C116.332 107.624 118.469 108.552 121.984 108.552C125.853 108.552 128.461 107.429 128.461 106.058V50.9561C127.774 51.7599 125.601 52.4619 121.732 52.4619Z" fill="#CB9972"/>
<path d="M109.34 52.4623C105.782 52.4623 103.898 51.8755 103.617 51.127C103.613 51.131 103.607 51.1347 103.603 51.1388V106.378C103.477 106.779 103.115 107.15 102.557 107.469C103.134 107.14 103.503 106.756 103.617 106.341C103.898 107.58 106.035 108.552 109.592 108.552C113.125 108.552 115.592 107.595 115.949 106.368C115.954 106.388 115.964 106.407 115.97 106.428V51.1805C115.964 51.1682 115.954 51.1554 115.949 51.1435C115.224 51.8234 112.873 52.4623 109.34 52.4623Z" fill="#FFF21A"/>
<path d="M90.6855 50.9561H90.6465V106.058H90.6855C90.6855 107.429 92.9682 108.552 96.9642 108.552C100.645 108.552 103.216 107.599 103.6 106.378V51.1383C102.826 51.829 100.41 52.4619 96.7124 52.4619C92.7169 52.4619 90.6855 51.7842 90.6855 50.9561Z" fill="#FEB337"/>
<path d="M84.158 52.4619C80.7491 52.4619 78.9405 51.889 78.6288 51.1531C78.6245 51.1569 78.6195 51.1601 78.6152 51.1637C78.617 51.1622 78.6195 51.1607 78.621 51.1591V106.401C78.623 106.396 78.6268 106.39 78.6288 106.385C78.9405 107.603 81.0009 108.552 84.4097 108.552C88.1188 108.552 90.619 107.429 90.619 106.058H90.6472V50.9561H90.619C89.9968 51.9453 87.868 52.4619 84.158 52.4619Z" fill="#327FB7"/>
<path d="M65.4548 50.9561H65.4492V106.058H65.4548C65.4548 107.429 67.783 108.552 71.8598 108.552C75.5898 108.552 78.2048 107.612 78.622 106.401V51.1591C77.6196 52.0089 75.347 52.4619 71.6081 52.4619C67.5312 52.4619 65.4548 51.7842 65.4548 50.9561Z" fill="#71C591"/>
<path d="M58.9897 52.4619C55.2868 52.4619 53.4238 51.7832 53.4238 50.9561V106.058C53.4238 107.429 55.5388 108.552 59.2415 108.552C62.9442 108.552 65.4409 107.429 65.4409 106.058H65.4487V50.9561H65.4409C64.7077 52.0069 62.6929 52.4619 58.9897 52.4619Z" fill="#C490D1"/>
<path d="M128.997 61.4027C128.997 58.2795 128.982 55.3038 128.955 52.5969C128.884 51.8579 129.082 51.3987 128.79 50.4798C128.565 49.8791 128.346 49.2967 128.133 48.7327C127.708 47.6062 127.307 46.5581 126.938 45.6024C126.568 44.6468 126.231 43.7842 125.928 43.0279C125.868 42.8756 125.547 42.0193 125.445 41.7355C125.427 41.6801 125.391 41.6326 125.341 41.6015C125.258 41.4977 125.151 41.4149 125.03 41.3598C124.909 41.3046 124.777 41.2787 124.643 41.284C124.51 41.2894 124.38 41.3259 124.264 41.3906C124.148 41.4553 124.048 41.5464 123.974 41.6566C123.797 41.9079 123.758 42.4838 123.807 42.9183C122.317 43.0991 120.818 43.1882 119.317 43.1853C118.483 43.1659 117.65 43.1024 116.822 42.995C116.697 42.9799 116.736 43.0282 116.703 42.6062C116.685 42.3767 116.676 42.3548 116.658 42.1253C116.625 41.7021 116.534 41.1408 116.025 41.0302C115.945 41.0134 115.864 41.0039 115.782 41.0018C115.667 40.9942 115.552 41.0106 115.444 41.0499C115.336 41.0892 115.238 41.1507 115.155 41.2303C114.977 41.1194 114.766 41.0706 114.557 41.0916C114.348 41.1126 114.152 41.2022 113.999 41.3464C113.651 41.6511 113.785 42.4046 113.865 42.9141C111.234 43.2368 108.575 43.2501 105.941 42.9535L105.943 42.8465C106.033 42.3511 106.147 41.7051 105.837 41.3741C105.769 41.2884 105.684 41.2175 105.587 41.1656C105.491 41.1138 105.385 41.0821 105.275 41.0725C105.166 41.0629 105.056 41.0755 104.952 41.1097C104.848 41.1439 104.752 41.1988 104.67 41.2713C104.555 41.1718 104.416 41.1044 104.267 41.0757C104.205 41.0535 104.138 41.0455 104.072 41.0521C103.977 41.0452 103.882 41.0472 103.787 41.0579C103.285 41.1192 103.19 41.7473 103.15 42.1314C103.126 42.3546 103.102 42.5778 103.078 42.8012C103.028 43.2647 101.345 43.092 100.542 43.1405C98.7813 43.2408 97.0151 43.1785 95.2659 42.9543C95.3054 42.4544 95.3716 41.8195 95.0597 41.4527C94.7789 41.1232 94.3466 41.1775 94.01 41.3731C93.6383 40.9337 92.9198 41.0312 92.5368 41.5623C92.3485 41.8999 92.2061 42.261 92.1133 42.6361C91.9688 43.0382 92.0524 42.9744 91.786 43.0023C91.2499 43.0581 90.7126 43.0985 90.1746 43.1355C88.8698 43.2189 87.5605 43.1966 86.2594 43.0689C85.9114 43.0365 85.4199 43.1493 85.4194 42.8412C85.4194 42.6225 85.4242 42.4038 85.4207 42.1849C85.4091 41.4834 84.8041 41.2047 84.2506 41.4035C84.1904 41.3135 84.109 41.2395 84.0135 41.188C83.9181 41.1365 83.8115 41.1091 83.703 41.1082C83.6189 41.0877 83.5315 41.0849 83.4463 41.0998C83.3611 41.1147 83.2799 41.1471 83.2078 41.1949C83.0147 41.2674 82.8362 41.3737 82.6805 41.5088C82.4104 41.7458 82.255 42.164 82.078 42.4662L81.728 43.0641C81.7139 43.0892 80.3646 43.1053 80.233 43.1144C78.9397 43.2026 77.6421 43.2059 76.3485 43.1242C75.8179 43.0915 75.2885 43.0352 74.76 42.9769C74.2881 42.9246 74.3571 43.002 74.3634 42.568C74.4115 42.3335 74.3649 42.0896 74.2337 41.8893C74.0323 41.4774 73.6111 41.3424 73.1158 41.5498C72.864 41.1496 72.3821 41.1358 71.8745 41.3663C71.6833 41.4824 71.5196 41.6384 71.3946 41.8237C70.7279 42.622 70.3591 43.034 69.2666 43.1001C67.6534 43.1749 66.0367 43.1094 64.4349 42.9043C64.3759 42.8975 64.4412 42.3262 64.4182 42.1502C64.3636 41.7348 64.1894 41.6191 63.8339 41.4427C63.2422 41.1494 62.1414 42.5275 61.8302 42.8148C60.4267 44.1102 59.0231 45.4055 57.6194 46.7006L53.8426 50.1867C53.5657 50.4428 53.0508 50.8181 53.0508 51.1828V105.873C53.0508 108.652 57.1855 108.905 59.4151 108.905C61.6446 108.905 64.8032 108.099 65.4614 106.949C66.0058 107.536 66.6899 107.977 67.4505 108.23C68.6414 108.686 70.2065 108.913 71.8725 108.909C72.5172 108.909 73.1613 108.873 73.8019 108.801C75.6362 108.678 77.691 108.257 78.6044 107.003C79.2591 108.087 80.7194 108.546 82.1941 108.728C83.0511 108.867 83.9194 108.926 84.7874 108.902C85.819 108.891 86.8455 108.755 87.8441 108.497C89.0118 108.233 90.1587 107.757 90.6542 106.898C90.6754 106.933 90.6983 106.966 90.723 106.998C91.0042 107.362 91.3634 107.658 91.7741 107.864C91.8086 107.882 91.8446 107.895 91.8794 107.912C93.0985 108.618 94.9793 108.972 97.0059 108.96C98.0037 108.962 98.9993 108.868 99.979 108.679C101.462 108.463 102.913 107.987 103.605 106.981C104.003 107.619 104.685 108.035 105.472 108.307C106.84 108.813 108.294 109.046 109.752 108.992C111.033 108.996 112.306 108.809 113.531 108.436C114.533 108.167 115.432 107.724 115.939 106.994C116.61 108.053 118.119 108.475 119.484 108.665C120.495 108.848 121.522 108.934 122.55 108.92C123.824 108.928 125.093 108.758 126.32 108.415C127.054 108.218 127.736 107.861 128.316 107.37C128.678 107.046 128.902 106.595 128.941 106.111C128.954 105.716 128.951 105.37 128.956 104.99C128.983 102.005 128.998 98.7239 128.998 95.2789C128.998 88.3338 128.937 82.0504 128.839 77.5287C128.936 73.422 128.997 67.7147 128.997 61.4027ZM53.784 50.8807L55.8332 48.9896L62.8076 42.5536L63.3885 42.0175C63.4188 41.9854 63.4555 41.96 63.4962 41.9429C63.5369 41.9259 63.5808 41.9175 63.6249 41.9183C63.6691 41.9192 63.7126 41.9293 63.7526 41.9479C63.7926 41.9666 63.8283 41.9934 63.8573 42.0266C63.8864 42.0599 63.9081 42.0988 63.9211 42.1409C63.9342 42.1831 63.9382 42.2275 63.9331 42.2712C63.9279 42.315 63.9136 42.3573 63.8911 42.3952C63.8686 42.4331 63.8384 42.466 63.8024 42.4916L63.4751 42.7932L60.3953 45.6354C58.5153 47.3712 56.6345 49.1069 54.7528 50.8425C54.7283 50.8641 54.7097 50.8917 54.6988 50.9225C54.688 50.9534 54.6853 50.9865 54.691 51.0187C54.6967 51.0509 54.7106 51.0811 54.7313 51.1064C54.7521 51.1317 54.779 51.1513 54.8095 51.1632C57.1511 51.9333 59.9738 51.7724 62.3821 51.4465C63.3827 51.3112 64.2828 51.0735 64.9354 50.2903C67.093 47.7011 69.2537 45.1141 71.4175 42.5293C71.5512 42.3694 71.8708 41.9512 72.0261 41.8112C72.3995 41.4688 72.9738 41.5709 72.8029 41.8546C72.5634 42.1806 72.3038 42.4912 72.0253 42.7846L68.4047 47.1165L65.4428 50.6605C64.8234 51.3509 63.9947 51.8202 63.0833 51.9966C61.9353 52.182 60.7742 52.2745 59.6112 52.2731C59.405 52.2731 59.2021 52.2731 59.0069 52.2731C57.6625 52.301 56.3196 52.1679 55.0069 51.8768C54.5816 51.7431 54.1754 51.5551 53.7983 51.3175C53.6462 51.1946 53.575 51.088 53.784 50.8807ZM67.0504 49.3367L72.5919 42.6934L73.181 41.9871C73.5114 41.5907 74.0789 42.0673 73.6972 42.526C72.9509 43.4231 72.2046 44.3203 71.4583 45.2174L66.8638 50.7407C66.8474 50.7643 66.8365 50.7914 66.8322 50.8199C66.8278 50.8483 66.83 50.8774 66.8385 50.9049C66.8471 50.9323 66.8618 50.9575 66.8816 50.9785C66.9014 50.9994 66.9257 51.0156 66.9527 51.0257C69.2313 51.7141 71.8018 51.5922 74.1469 51.4314C74.9022 51.3796 77.2861 51.3389 77.8828 50.5391C77.9012 50.5182 77.918 50.4961 77.9332 50.4727V50.4727L82.5033 42.6667L82.5065 42.661C82.6073 42.4895 82.708 42.318 82.8087 42.1465C82.9935 41.8313 83.3102 41.4997 83.6013 41.5038C83.8707 41.5073 83.9616 41.6754 83.8211 41.9142C83.7013 42.1191 83.5813 42.3239 83.4613 42.5285C82.5655 44.0592 81.6694 45.5898 80.773 47.1203L78.5674 50.888C78.3257 51.3007 77.7637 51.5276 77.2347 51.6784C75.499 52.1102 73.7108 52.2943 71.9234 52.2251C70.0207 52.2379 68.2957 52.1336 67.0914 51.871C67.0511 51.8644 67.0144 51.8561 66.9761 51.8486C66.3872 51.7033 65.7852 51.4588 65.6505 51.0217C65.6054 50.8749 66.8419 49.586 67.0504 49.3367ZM79.8117 49.5063C81.1312 47.2523 82.4509 44.9985 83.7707 42.7452L84.2021 42.0085C84.4216 41.6335 85.0143 42.1173 84.7864 42.5066L83.13 45.3365C82.071 47.1442 81.012 48.9524 79.953 50.761C79.9369 50.7848 79.9263 50.8118 79.9221 50.8402C79.9179 50.8686 79.9202 50.8975 79.9287 50.9249C79.9373 50.9523 79.9519 50.9774 79.9715 50.9984C79.991 51.0193 80.0151 51.0356 80.0418 51.0461C82.1107 51.7224 84.4946 51.5932 86.631 51.4208C87.5575 51.3454 89.0043 51.265 89.7329 50.5587C89.8898 50.4079 89.9404 50.0578 90.0099 49.8637L90.7207 47.8907C91.3181 46.2318 91.9157 44.5729 92.5134 42.9141C92.6386 42.5665 92.7638 42.2188 92.889 41.871C92.9963 41.5736 93.8428 41.452 93.6985 41.8521C93.629 42.0455 93.5595 42.2387 93.4898 42.4317C92.954 43.9185 92.4184 45.4052 91.8829 46.8918C91.4252 48.1626 90.9673 49.4334 90.5092 50.7042C90.3953 51.0006 90.1932 51.2549 89.9301 51.4331C89.6468 51.5877 89.3428 51.7013 89.0275 51.7704C87.9481 52.0688 86.3759 52.2015 84.6399 52.2229C83.3936 52.256 82.1466 52.1931 80.91 52.0346C80.5953 51.9552 79.2266 51.557 78.8721 51.3474C78.8436 51.3263 78.7827 51.265 78.788 51.2562L79.8117 49.5063ZM91.3381 49.6782C92.156 47.3608 92.9739 45.0435 93.7917 42.7261C93.8852 42.4618 93.9785 42.1977 94.0717 41.9338C94.1993 41.5719 94.8726 41.9323 94.7404 42.3073L93.7454 45.1266C93.0907 46.9792 92.4369 48.8319 91.784 50.6846C91.7673 50.7315 91.7696 50.7831 91.7904 50.8283C91.8112 50.8736 91.8488 50.9089 91.8953 50.9269C93.7635 51.6855 96.0769 51.5633 98.0387 51.4889C99.1307 51.453 100.217 51.3184 101.285 51.0868C101.612 51.0139 102.491 50.8857 102.701 50.5856C102.822 50.4122 102.784 50.0246 102.805 49.8293C102.879 49.1255 102.954 48.4224 103.029 47.7198L103.554 42.7811C103.587 42.4619 103.621 42.1428 103.654 41.8237C103.684 41.5425 104.444 41.545 104.41 41.8564L104.349 42.4244C104.181 44.0133 104.012 45.6019 103.843 47.1904C103.707 48.4706 103.571 49.7507 103.435 51.0307C103.419 51.1798 103.133 51.3273 102.777 51.4555C100.908 51.9866 98.9685 52.2333 97.0253 52.1874C95.1594 52.204 93.4666 52.101 92.2885 51.8453C92.1941 51.8293 92.1065 51.8104 92.0224 51.79C91.762 51.6986 91.5101 51.5848 91.2693 51.45C90.5553 51.0425 91.1288 50.2714 91.3381 49.6782V49.6782ZM103.96 49.6865L104.713 42.6011C104.739 42.3508 104.766 42.1004 104.793 41.8499C104.835 41.4525 105.566 41.7242 105.523 42.1193C105.422 43.064 105.322 44.0088 105.221 44.9535C105.017 46.8734 104.812 48.7933 104.609 50.713C104.605 50.7543 104.616 50.7956 104.638 50.8306C104.66 50.8657 104.692 50.8928 104.731 50.9078C106.239 51.6081 108.177 51.5284 109.788 51.5148C111.463 51.5007 113.279 51.3736 114.845 50.7238C114.882 50.7057 114.912 50.6762 114.931 50.6396C114.95 50.603 114.956 50.5613 114.95 50.5208L114.511 44.9522C114.435 43.9943 114.36 43.0363 114.284 42.0783C114.254 41.6933 114.996 41.4791 115.027 41.8649C115.046 42.1163 115.066 42.3671 115.086 42.6175C115.273 44.9836 115.459 47.3497 115.646 49.7157L115.737 50.8772C115.768 51.2703 115.687 51.2152 115.387 51.3607C115.24 51.4324 115.016 51.4801 114.863 51.5445C113.189 52.0012 111.458 52.2172 109.723 52.1859C107.96 52.2078 106.356 52.1183 105.242 51.876C105.132 51.8561 105.03 51.8325 104.933 51.8074C104.666 51.7133 104.409 51.5944 104.164 51.4525C103.562 51.0961 103.897 50.28 103.96 49.6865V49.6865ZM115.46 42.5521C115.444 42.3599 115.429 42.1672 115.414 41.974C115.389 41.6493 115.561 41.461 115.77 41.4434C116.006 41.4238 116.107 41.6156 116.163 41.836C116.213 42.152 116.238 42.4713 116.239 42.7912L116.864 50.7201C116.923 51.464 120.43 51.4897 120.792 51.5043C122.863 51.5885 125.263 51.5847 127.194 50.7181C127.239 50.6958 127.273 50.6572 127.29 50.6104C127.306 50.5635 127.304 50.512 127.284 50.4667L125.33 45.0377L124.367 42.3661C124.261 42.0716 124.635 41.8011 124.876 41.8574C125.067 42.0861 125.148 42.6718 125.364 43.23C125.613 44.0054 126.112 45.1905 126.436 46.1614C126.759 47.1324 127.74 49.8997 127.949 50.5062C127.994 50.566 128.025 50.6349 128.04 50.708C128.054 50.7811 128.053 50.8565 128.035 50.929C128.017 51.0014 127.984 51.0691 127.937 51.1271C127.89 51.1851 127.831 51.232 127.763 51.2645C126.584 51.7259 125.338 51.9935 124.073 52.057C122.34 52.2174 120.596 52.2258 118.862 52.0821C118 52.0629 117.153 51.8523 116.383 51.4656C116.236 51.3412 116.143 51.165 116.124 50.9739L115.825 47.1857C115.703 45.6412 115.582 44.0967 115.46 42.5521V42.5521ZM124.029 43.4605C124.19 44.0469 124.454 44.6197 124.646 45.1628C125.258 46.8874 125.869 48.6117 126.48 50.3358C126.507 50.4132 126.534 50.4906 126.562 50.568C126.209 50.6812 125.849 50.7721 125.485 50.8402C123.702 51.2089 121.824 51.1944 120.016 51.089C119.746 51.0735 117.249 50.8377 117.234 50.6454C117.196 50.1546 117.157 49.6638 117.118 49.1728C116.97 47.2952 116.822 45.4177 116.674 43.5402C119.12 43.8008 121.589 43.7741 124.029 43.4605V43.4605ZM113.89 43.4783L114.114 50.5999C114.039 50.6153 113.95 50.6356 113.847 50.664C112.249 51.1059 110.531 51.1524 108.887 51.1396C107.752 51.161 106.618 51.0395 105.513 50.7779L105.922 43.5208C108.571 43.8147 111.245 43.8004 113.89 43.4783V43.4783ZM103.064 43.4964C103.058 43.7226 103.052 43.9328 103.034 44.1022C103 44.4165 102.966 44.7309 102.933 45.0455C102.852 45.8085 102.771 46.5716 102.689 47.3347C102.619 47.9988 102.548 48.6627 102.478 49.3266C102.457 49.5179 102.367 50.3679 102.364 50.3823C102.351 50.3908 102.143 50.4416 102.097 50.4597C100.946 50.9008 99.6471 51.0071 98.4298 51.0928C96.7448 51.2188 95.051 51.1611 93.3785 50.9209C93.1181 50.8818 92.8602 50.8283 92.6058 50.7605C92.6159 50.7301 92.6277 50.6942 92.6438 50.6474C92.9006 49.8884 93.1574 49.1294 93.4143 48.3705C93.9643 46.7461 94.5141 45.1218 95.0637 43.4974C97.7215 43.8048 100.406 43.8045 103.064 43.4964H103.064ZM91.8593 43.5568C91.8222 43.6922 91.7883 43.8106 91.7585 43.8966L89.8128 49.2975C89.7312 49.5237 89.5157 50.2445 89.4603 50.2986C89.034 50.7118 88.2603 50.8038 87.7106 50.9041C86.1189 51.1508 84.5047 51.2206 82.8976 51.1122C82.2762 51.0841 81.6571 51.0169 81.0442 50.9111C80.9646 50.8978 80.8866 50.8792 80.808 50.8621C80.8312 50.8229 80.8543 50.7836 80.8773 50.7442L82.0841 48.6927L84.9015 43.9031C84.9769 43.7707 85.0442 43.6338 85.1029 43.4932C85.1077 43.4932 85.1127 43.4967 85.1178 43.4974C87.3552 43.7811 89.6182 43.801 91.8603 43.5568H91.8593ZM74.0613 43.46C76.2827 43.7425 78.5267 43.8033 80.7602 43.6415C81.0016 43.6246 81.2308 43.6319 81.4428 43.6198C81.2413 44.0139 81.083 44.3457 80.9896 44.5056L79.14 47.6647C79.138 47.6685 79.1359 47.672 79.1337 47.6755L77.8539 49.8622C77.5464 50.2391 77.133 50.5156 76.667 50.6562C76.364 50.7439 76.0566 50.816 75.7462 50.8721C75.3025 50.9445 74.8534 50.989 74.4213 51.0317C74.1192 51.0616 73.817 51.084 73.5149 51.1034C73.0388 51.1235 72.5647 51.1328 72.1004 51.1406C71.6192 51.1486 71.1348 51.1481 70.6501 51.1348C70.0368 51.1097 69.4254 51.0679 68.8197 51.0051C68.8078 51.0038 68.1247 50.9096 67.7989 50.8457C69.7346 48.5572 71.6704 46.2689 73.6063 43.981C73.7504 43.8106 73.8821 43.6302 74.0006 43.4411C74.0201 43.4496 74.0404 43.4559 74.0613 43.46V43.46ZM68.9685 43.6769C69.186 43.6663 69.5851 43.6998 69.9592 43.6859L68.126 45.8804L66.8648 47.3908L66.8565 47.4008C66.1767 48.2148 65.4969 49.029 64.8171 49.8434C63.9326 50.9036 62.7598 51.0498 61.4032 51.1793C61.3671 51.1828 61.1317 51.2004 61.0552 51.2062C59.3011 51.3743 57.5324 51.3121 55.7945 51.0212C57.9962 48.9865 60.1979 46.9518 62.3995 44.9173C63.2303 44.1524 63.7792 43.7259 64.0713 43.4238C64.0877 43.4294 64.1045 43.4337 64.1217 43.4366C65.7278 43.6538 67.3496 43.7341 68.9695 43.6769H68.9685ZM127.968 104.99C127.969 105.356 127.979 105.748 127.974 106.078C127.95 106.316 127.837 106.537 127.658 106.696C127.188 107.097 126.639 107.396 126.046 107.571C124.904 107.922 123.72 108.122 122.525 108.164C120.309 108.273 118.501 108.012 117.389 107.526C116.21 107.081 116.04 106.331 115.948 106.368C115.812 106.336 115.532 107.023 114.366 107.403C113.265 107.825 111.596 108.086 109.743 108.101C107.885 108.133 106.21 107.887 105.13 107.445C103.985 107.041 103.755 106.313 103.617 106.34H103.616C103.496 106.315 103.19 107.048 101.938 107.439C100.755 107.875 98.9749 108.136 97.0017 108.141C95.0274 108.154 93.238 107.888 92.1073 107.377C90.909 106.915 90.8161 106.093 90.6953 106.061C90.692 106.028 90.6872 106.022 90.687 106.058C90.4646 105.921 90.5283 106.843 89.3618 107.313C88.3101 107.848 86.626 108.155 84.7701 108.188C82.9069 108.229 81.2147 108.009 80.1285 107.535C78.9768 107.111 78.7394 106.354 78.6301 106.386C78.5294 106.357 78.185 107.102 76.9051 107.494C75.6931 107.931 73.8792 108.193 71.8713 108.197C69.8628 108.205 68.0394 107.937 66.8809 107.411C65.7464 106.983 65.5943 106.211 65.4815 106.08C65.4781 106.075 65.4734 106.07 65.4679 106.066C65.4647 106.064 65.4609 106.062 65.4569 106.061C65.4529 106.06 65.4488 106.06 65.4448 106.061H65.4425C65.4274 106.043 65.4133 106.063 65.4047 106.106C65.2869 106.395 65.1099 106.656 64.8853 106.873C64.6606 107.09 64.3932 107.257 64.1 107.365C63.0153 107.889 60.8565 108.194 59.3826 108.194C57.9087 108.194 57.0848 108.146 55.83 107.816C55.8171 107.812 55.5107 107.722 55.4558 107.705C54.5212 107.395 53.8016 106.882 53.8016 106.022V51.6418C54.091 51.8932 54.4396 52.0673 54.8148 52.1477C55.9528 52.5021 57.5856 52.6504 59.372 52.6338C61.1534 52.619 62.787 52.4579 63.9152 52.0658C64.5289 51.9168 65.0653 51.5453 65.4198 51.0234C65.4349 51.2444 65.8932 51.962 67.0098 52.1884C68.2436 52.5446 70.002 52.7012 71.9282 52.6886C73.8543 52.676 75.6042 52.4961 76.8346 52.1389C78.0915 51.8197 78.584 51.1921 78.6223 51.1587L78.6341 51.1443L78.6301 51.1526C78.5246 51.1727 78.9677 51.9318 80.1456 52.2271C81.2733 52.5682 82.885 52.7087 84.6472 52.6841C86.4094 52.6594 88.0158 52.4777 89.1289 52.0808C90.2944 51.7315 90.4634 51.2725 90.6648 50.9312C90.7491 51.2951 90.8849 51.93 92.1929 52.21C93.4075 52.5747 95.137 52.7379 97.0329 52.7215C100.077 52.7999 102.602 51.9509 103.381 51.4346C103.476 51.3695 103.551 51.2807 103.6 51.1773C103.633 51.3605 104.111 51.9853 105.148 52.2405C106.297 52.5923 107.936 52.7414 109.732 52.7195C113.021 52.7927 115.658 51.6928 115.937 51.2537C116.077 51.5711 117.231 52.3797 118.805 52.5029C120.568 52.7571 122.354 52.8077 124.128 52.6537C125.491 52.6162 126.821 52.2245 127.987 51.5173C127.98 51.8722 127.951 52.2787 127.968 52.5954C127.941 55.3023 127.926 58.278 127.926 61.4012C127.926 67.7132 127.987 73.4205 128.085 77.527C127.987 82.0487 127.926 88.332 127.926 95.2772C127.926 98.7239 127.941 102.005 127.968 104.99Z" fill="#4F3636"/>
<path d="M65.4477 106.332C65.3492 106.332 65.2695 93.9947 65.2695 78.7909C65.2695 63.5682 65.3492 51.2305 65.4477 51.2305C65.5463 51.2305 65.6259 63.5682 65.6259 78.7909C65.6249 93.9947 65.546 106.332 65.4477 106.332Z" fill="#4F3636"/>
<path d="M78.6226 106.332C78.4751 106.332 78.3555 93.9947 78.3555 78.7909C78.3555 63.5682 78.4751 51.2305 78.6226 51.2305C78.7702 51.2305 78.8901 63.5682 78.8901 78.7909C78.8901 93.9947 78.7702 106.332 78.6226 106.332Z" fill="#4F3636"/>
<path d="M90.648 106.332C90.5002 106.332 90.3809 93.9947 90.3809 78.7909C90.3809 63.5682 90.5002 51.2305 90.648 51.2305C90.7958 51.2305 90.9155 63.5682 90.9155 78.7909C90.9155 93.9947 90.7956 106.332 90.648 106.332Z" fill="#4F3636"/>
<path d="M103.603 106.332C103.406 106.332 103.246 93.9947 103.246 78.7909C103.246 63.5682 103.406 51.2305 103.603 51.2305C103.8 51.2305 103.96 63.5682 103.96 78.7909C103.96 93.9947 103.801 106.332 103.603 106.332Z" fill="#4F3636"/>
<path d="M115.97 106.332C115.773 106.332 115.613 93.9947 115.613 78.7909C115.613 63.5682 115.773 51.2305 115.97 51.2305C116.167 51.2305 116.327 63.5682 116.327 78.7909C116.327 93.9947 116.167 106.332 115.97 106.332Z" fill="#4F3636"/>
<path d="M55.0728 103.74C54.8771 103.74 54.7188 81.2269 54.7188 70.3367C54.7188 59.4464 54.8771 53.7773 55.0728 53.7773C55.2684 53.7773 55.427 59.4462 55.427 70.3367C55.427 81.2272 55.2686 103.74 55.0728 103.74Z" fill="#DDBEDD"/>
</svg>
