<svg width="108" height="68" viewBox="0 0 108 68" fill="none" xmlns="http://www.w3.org/2000/svg">
<path d="M12.3867 64.0648C16.6106 64.06 33.438 64.0311 33.438 63.8888C33.438 63.7466 17.3199 63.7179 12.6745 63.7129L12.3867 64.0648Z" fill="#666666"/>
<path d="M12.9609 63.3568C17.1644 63.3517 33.775 63.3226 33.775 63.1808C33.775 63.0391 17.8687 63.0099 13.2487 63.0049L12.9609 63.3568Z" fill="#666666"/>
<path d="M14.1113 61.9407C18.274 61.9357 34.4508 61.9066 34.4508 61.7648C34.4508 61.6231 18.9662 61.5941 14.3986 61.5889L14.1113 61.9407Z" fill="#666666"/>
<path d="M14.6855 61.2337C18.8276 61.2284 34.7879 61.199 34.7879 61.0578C34.7879 60.9165 19.516 60.8871 14.9726 60.8818L14.6855 61.2337Z" fill="#666666"/>
<path d="M13.5352 62.649C17.7188 62.6438 34.1121 62.6146 34.1121 62.4718C34.1121 62.3291 18.4177 62.3009 13.8232 62.2959L13.5352 62.649Z" fill="#666666"/>
<path d="M11.5222 65.126L11.2344 65.4804C15.523 65.4753 33.0123 65.4464 33.0123 65.3029C33.0123 65.1594 16.2516 65.132 11.5222 65.126Z" fill="#666666"/>
<path d="M10.6602 66.1878C15.0452 66.1833 33.3782 66.1549 33.3782 66.0119C33.3782 65.8689 15.7927 65.8405 10.9477 65.8359L10.6602 66.1878Z" fill="#666666"/>
<path d="M12.0983 64.4189L11.8105 64.7728C16.0528 64.7678 33.0992 64.7392 33.0992 64.5969C33.0992 64.4546 16.7689 64.425 12.0983 64.4189Z" fill="#666666"/>
<path d="M10.3206 66.606C10.2689 66.7129 10.2002 66.8108 10.1172 66.8958C14.3957 66.8911 31.4666 66.8621 31.4666 66.7199C31.4666 66.5776 15.0332 66.5487 10.3727 66.5439L10.3206 66.606Z" fill="#666666"/>
<path d="M8.58398 67.5157V67.6041C8.58398 67.6041 29.0667 67.5898 29.0667 67.4259C29.0667 67.2844 13.7604 67.2545 9.61252 67.25C9.2862 67.3931 8.9389 67.4828 8.58398 67.5157Z" fill="#666666"/>
<path d="M17.5645 57.6937C21.6003 57.6881 36.4799 57.6585 36.4799 57.5177C36.4799 57.377 22.2615 57.3476 17.8515 57.3418L17.5645 57.6937Z" fill="#666666"/>
<path d="M19.8633 54.8626C23.8107 54.8568 37.8297 54.8267 37.8297 54.6867C37.8297 54.5467 24.4445 54.517 20.1503 54.5107L19.8633 54.8626Z" fill="#666666"/>
<path d="M19.2891 55.5706C23.2594 55.5648 37.4929 55.5347 37.4929 55.3947C37.4929 55.2547 23.9002 55.225 19.5766 55.2188L19.2891 55.5706Z" fill="#666666"/>
<path d="M18.7129 56.2786C22.7049 56.2729 37.1539 56.2427 37.1539 56.1027C37.1539 55.9627 23.3537 55.9328 19.0004 55.9268L18.7129 56.2786Z" fill="#666666"/>
<path d="M20.7287 53.8018L20.4414 54.1554C24.3639 54.1494 38.1704 54.1187 38.1704 53.9795C38.1704 53.8402 24.9919 53.8085 20.7287 53.8018Z" fill="#666666"/>
<path d="M16.4121 59.11C20.491 59.1047 35.8026 59.0748 35.8026 58.9328C35.8026 58.7908 21.1632 58.7626 16.6999 58.7568L16.4121 59.11Z" fill="#666666"/>
<path d="M15.2617 60.5257C19.3826 60.5204 35.1273 60.4908 35.1273 60.3498C35.1273 60.2088 20.067 60.1794 15.5503 60.1738L15.2617 60.5257Z" fill="#666666"/>
<path d="M15.8359 59.8177C19.9362 59.8124 35.4634 59.783 35.4634 59.6418C35.4634 59.5005 20.6138 59.4713 16.1235 59.4658L15.8359 59.8177Z" fill="#666666"/>
<path d="M16.9863 58.401C21.0443 58.3955 36.1394 58.3655 36.1394 58.2238C36.1394 58.082 21.7123 58.0536 17.2739 58.0479L16.9863 58.401Z" fill="#666666"/>
<path d="M18.1387 56.9857C22.1531 56.9799 36.8166 56.95 36.8166 56.8097C36.8166 56.6695 22.8085 56.6398 18.4257 56.6338L18.1387 56.9857Z" fill="#666666"/>
<path d="M33.3598 7.62988L23.2656 17.0018C24.0151 17.8257 24.9332 18.4793 25.9577 18.9183C27.694 19.6901 29.5884 20.0418 31.4866 19.9448L39.918 9.4559C37.1844 9.58811 34.8428 8.81925 33.3598 7.62988Z" fill="#E8DFCB"/>
<path d="M28.9459 12.7774C31.0861 10.4869 33.3269 8.81094 33.9841 8.073C33.9491 8.05063 33.9151 8.02776 33.8804 8.00488C33.5505 8.47478 33.0829 8.8311 32.5419 9.02484C31.918 9.39004 31.4786 10.0787 30.7703 10.5513C29.9748 11.1036 29.2691 11.7749 28.6783 12.5417C26.5774 15.1576 24.2117 16.6823 23.5684 17.3172C23.5935 17.3423 23.6187 17.3652 23.6439 17.3893C24.4055 16.8575 26.8561 15.3738 28.9459 12.7774Z" fill="#4F3636"/>
<path d="M37.6961 9.35938C37.4533 9.61072 37.0621 10.1245 36.528 10.7224C36.0245 11.0994 35.6594 11.9912 35.2208 12.5261C34.4884 13.1275 34.0515 13.8549 33.2264 14.5019C31.2625 16.8924 29.8996 19.0469 29.2734 19.8477C29.3185 19.8535 29.3633 19.8621 29.4081 19.8671C29.7863 19.5195 30.1277 19.1341 30.4271 18.7169C30.7796 18.2394 31.4564 17.6754 31.7696 16.8799C32.3826 16.2007 32.9567 15.4874 33.489 14.7434C34.2351 14.1706 34.8308 13.2798 35.4217 12.786C36.0512 11.9977 36.1844 11.3533 36.7174 10.8893C37.2965 10.1755 37.6271 9.63083 37.8056 9.3737C37.7683 9.36968 37.7323 9.36516 37.6961 9.35938Z" fill="#4F3636"/>
<path d="M29.8556 13.168C30.5251 12.4185 31.149 11.7102 31.8606 11.2226C32.5907 10.6403 32.95 9.92695 33.4856 9.5801C33.9705 9.3129 34.3786 8.92598 34.6709 8.45633C34.6307 8.43648 34.5914 8.41587 34.5519 8.39551C34.2271 8.80715 33.8142 9.14098 33.3433 9.37248C32.7405 9.73266 32.3208 10.4719 31.6649 10.9595C30.9206 11.4481 30.2549 12.1835 29.5902 12.931C27.1228 16.019 24.5095 17.8141 24.5098 18.1004L24.5231 18.1095C26.5192 16.7142 28.3135 15.0515 29.8556 13.168V13.168Z" fill="#4F3636"/>
<path d="M30.8209 16.472C31.3421 15.8881 32.0116 15.0765 32.5915 14.3586C33.3012 13.7235 33.9201 12.8981 34.5302 12.4007C35.205 11.6718 35.3666 10.9952 35.913 10.5711C36.3091 10.1638 36.6608 9.71567 36.9621 9.23424C36.9183 9.22519 36.8753 9.21488 36.832 9.20508C36.4925 9.62376 36.1264 10.0201 35.7357 10.3917C35.1997 10.7546 34.8331 11.629 34.3328 12.1383C33.6049 12.7179 33.0933 13.4307 32.3306 14.1148C31.6667 14.9337 31.1414 15.5855 30.5452 16.2922C30.1675 17.0893 29.5927 17.5454 29.1947 18.1002C28.536 18.8876 28.0485 19.4072 27.8809 19.5864C27.906 19.5929 27.9327 19.6009 27.9589 19.6075C28.48 19.2052 28.9602 18.7527 29.3926 18.2565C29.7733 17.7757 30.4387 17.2468 30.8209 16.472Z" fill="#4F3636"/>
<path d="M30.7658 13.5628C31.4493 12.8565 32.0707 12.1075 32.7475 11.6181C33.4686 10.9926 33.7519 10.2795 34.2955 9.91629C34.7348 9.61302 35.1092 9.22544 35.3968 8.77619C35.3522 8.7591 35.3089 8.74075 35.2649 8.72266C34.9482 9.11415 34.5684 9.45028 34.1412 9.71723C33.5548 10.0741 33.1612 10.8636 32.5509 11.3557C31.8114 11.8743 31.2023 12.6004 30.5004 13.325C29.1136 14.7911 28.0956 16.2806 27.1157 17.1382C26.1252 17.9787 25.5717 18.6045 25.6135 18.6354C25.6553 18.6664 26.2367 18.1307 27.2856 17.3244C28.329 16.4925 29.4034 15.001 30.7658 13.5628Z" fill="#4F3636"/>
<path d="M31.6773 13.96C32.3717 13.2904 32.9953 12.504 33.6359 12.0108C34.3391 11.3352 34.5541 10.636 35.1033 10.2461C35.5136 9.89742 35.8692 9.48922 36.1582 9.03517C36.1121 9.0216 36.0681 9.00626 36.0225 8.99219C35.7027 9.38709 35.3386 9.74415 34.9373 10.0564C34.3736 10.413 33.9964 11.2505 33.4402 11.7472C32.7063 12.2986 32.1463 13.0134 31.4141 13.7192C30.0482 15.2155 29.0773 16.6946 28.1573 17.6208C27.2451 18.5312 26.6889 19.1216 26.7116 19.1478C26.7537 19.195 27.3662 18.676 28.3426 17.7905C29.3072 16.9108 30.3582 15.4012 31.6773 13.96Z" fill="#4F3636"/>
<path d="M40.1768 8.25981C39.7487 8.01274 39.2955 8.42143 39.2955 8.42143L30.9364 18.8193C29.3828 18.8382 27.8435 18.521 26.4244 17.8893C25.5255 17.5096 24.7218 16.9363 24.0708 16.2103C23.9617 16.0887 31.1552 9.5193 33.3331 7.53519L33.8681 6.38051C33.9062 6.31897 33.9314 6.25035 33.9421 6.1788C33.9529 6.10725 33.9489 6.03427 33.9305 5.96429C33.9121 5.89431 33.8797 5.82879 33.8352 5.77171C33.7906 5.71464 33.7349 5.66719 33.6715 5.63226C33.5623 5.56236 33.4354 5.52495 33.3057 5.52442C33.176 5.52389 33.0488 5.56024 32.939 5.62924L22.1915 15.6076L0.526093 62.2368C-0.013225 63.4252 1.38744 65.4015 4.17366 66.6605C6.95989 67.9195 9.78212 67.7961 10.3209 66.6074L21.0335 53.4264L40.3704 8.89421C40.4028 8.84065 40.4235 8.7809 40.4312 8.71883C40.4389 8.65676 40.4335 8.59376 40.4152 8.53393C40.397 8.47411 40.3663 8.41878 40.3252 8.37155C40.2841 8.32433 40.2336 8.28625 40.1768 8.25981Z" fill="#E25F55"/>
<path d="M40.5397 8.109C40.5229 8.05746 40.4926 8.01138 40.4518 7.9756C40.411 7.93982 40.3614 7.91566 40.308 7.90566C39.5799 7.72495 39.1705 7.97654 38.7276 8.52749L38.2953 9.06512C38.186 9.20109 37.8859 9.00303 37.6281 8.97011C36.506 8.81766 35.4225 8.45652 34.4337 7.90541C33.8516 7.5857 33.6615 7.70434 33.8564 7.29062C33.9901 7.00711 34.117 6.71932 34.2592 6.44057C34.6792 5.6232 33.6504 5.0705 32.9862 5.20195C32.29 5.33943 31.4951 6.45541 31.0165 6.89978L26.774 10.8399L22.8857 14.4502C22.5418 14.7694 22.0098 15.1097 21.8058 15.548C21.1623 16.9328 20.5189 18.3174 19.8756 19.7018L1.70879 58.7982C1.19667 59.9007 0.684709 61.0033 0.17292 62.1059C-0.699255 63.9831 1.94371 65.9333 3.28621 66.6363C5.12548 67.5995 8.8292 68.959 10.5277 67.0028C12.2147 65.0597 13.8452 63.0542 15.4576 61.0324C16.1979 60.1356 16.9587 59.212 17.7403 58.2615C18.4845 57.3567 19.2459 56.4293 20.0242 55.4794L21.2023 54.0412C21.7728 53.3327 21.7955 52.8519 22.1223 52.2378C23.1443 49.9021 24.199 47.4824 25.2759 45.0021C29.5985 35.0469 33.456 26.0113 36.1906 19.4683C37.3195 16.8692 38.448 14.2701 39.5761 11.6711C39.9205 10.8738 41.2029 8.97061 40.5397 8.109ZM34.4047 8.74289C35.271 9.15976 36.187 9.46459 37.1305 9.64999C37.3118 9.6877 37.6021 9.7734 37.8957 9.82015C37.7512 10.0227 37.6089 10.2195 37.4662 10.397C36.2193 11.9483 34.9724 13.4995 33.7254 15.0506L30.9641 18.486C30.5162 19.0432 28.6508 18.4176 28.0362 18.2653C27.148 18.0328 26.2991 17.6707 25.5168 17.1908C25.3532 17.0931 24.8118 16.5798 24.3853 16.2237L30.1396 10.8811L33.208 8.0336C33.5717 8.32502 33.9745 8.56403 34.4047 8.74365V8.74289ZM9.06537 67.0174C8.36518 67.1464 7.65012 67.175 6.94184 67.1023C5.06596 66.8411 3.31272 66.0208 1.91148 64.7487C1.32004 64.2073 0.493187 63.201 0.891255 62.3441L1.42377 61.198L4.44516 54.6935L14.3898 33.2967L22.0397 16.8307C22.1621 16.5672 22.2846 16.3038 22.4073 16.0402C23.2756 17.474 24.5954 18.58 26.1604 19.1853C28.8041 20.2997 31.1897 20.0323 31.4604 19.9574C31.1056 20.2869 27.9642 26.8535 23.6524 36.3596C19.8535 44.7324 12.7051 60.774 10.7976 65.3555C10.5061 65.6938 10.2674 66.0625 10.0254 66.3687C9.76998 66.6675 9.43821 66.8917 9.06537 67.0174V67.0174ZM39.9961 9.05682L38.9356 10.3761C38.0926 11.3466 36.9528 12.7159 35.7198 14.2501C33.2657 17.3034 31.3698 19.8528 31.4851 19.9451C31.6004 20.0373 33.6831 17.638 36.1373 14.5846C37.3483 13.0783 38.4229 11.6942 39.1871 10.6682L38.5451 12.1471L35.4919 19.1785C32.5783 25.643 28.6117 34.6269 24.2912 44.5771C23.2143 47.0571 22.1664 49.4801 21.1575 51.8213C20.8991 52.3296 20.669 53.1592 20.3948 53.389L19.2278 54.8362C18.4582 55.7913 17.7061 56.7262 16.9716 57.641C15.5042 59.4682 14.1123 61.207 12.8129 62.8365C12.2769 63.5089 11.7607 64.1576 11.2571 64.7912C13.7624 59.6198 20.661 44.6656 24.2962 36.6512C28.7474 26.8372 31.6633 20.0257 31.4851 19.9451C31.4999 19.7943 29.0176 20.0107 26.2984 18.8575C24.8482 18.2777 23.5809 17.3193 22.6291 16.0827C22.5808 16.038 22.5434 15.983 22.5196 15.9217C22.4959 15.8605 22.4864 15.7946 22.4921 15.7291C22.4977 15.6637 22.5182 15.6004 22.552 15.544C22.5858 15.4877 22.6321 15.4398 22.6873 15.404L33.0252 5.80593C33.3596 5.49577 33.6799 6.22744 33.3825 6.50442L32.353 7.45953L28.9481 10.6224L23.5738 15.6121C23.5364 15.6449 23.5132 15.691 23.5091 15.7406C23.505 15.7901 23.5203 15.8393 23.5519 15.8778C24.7841 17.4057 26.4139 18.2495 28.3068 18.718C29.0194 18.8939 30.6809 19.4389 31.2275 18.7597L35.4295 13.5318L39.3918 8.60515C39.6788 8.24623 40.3453 8.6235 39.9961 9.05682Z" fill="#4F3636"/>
<path d="M39.1799 11.2975C39.2554 11.3583 35.5137 16.1798 33.6732 18.4884C31.8326 20.797 30.5055 22.334 30.4292 22.2739C30.3529 22.2139 31.5557 20.5771 33.3962 18.2685C35.2367 15.9599 39.1034 11.2366 39.1799 11.2975Z" fill="#4F3636"/>
<path d="M37.9817 14.0572C38.0572 14.118 34.2623 19.0037 32.3961 21.3429C30.5299 23.6822 29.1851 25.2415 29.1089 25.1807C29.0326 25.1199 30.2532 23.4625 32.1194 21.123C33.9856 18.7835 37.9051 13.9964 37.9817 14.0572Z" fill="#4F3636"/>
<path d="M36.7825 16.817C36.858 16.8778 33.0098 21.8273 31.1174 24.1977C29.225 26.5681 27.8628 28.1484 27.7865 28.0873C27.7103 28.0262 28.9485 26.348 30.8407 23.9775C32.7328 21.6071 36.7062 16.7554 36.7825 16.817Z" fill="#4F3636"/>
<path d="M35.5837 19.5758C35.6592 19.6366 31.7566 24.6499 29.84 27.0513C27.9234 29.4526 26.5417 31.0539 26.4661 30.9931C26.3906 30.9323 27.6457 29.2324 29.563 26.8311C31.4804 24.4297 35.5071 19.5147 35.5837 19.5758Z" fill="#4F3636"/>
<path d="M34.386 22.3355C34.4615 22.3963 30.5068 27.4737 28.5635 29.906C26.6203 32.3383 25.2221 33.9609 25.1458 33.8999C25.0695 33.8388 26.3433 32.1178 28.2866 29.6856C30.2298 27.2533 34.3094 22.2752 34.386 22.3355Z" fill="#4F3636"/>
<path d="M33.1858 25.0953C33.2613 25.1561 29.2535 30.2981 27.2845 32.7613C25.3156 35.2245 23.8998 36.8683 23.8235 36.8079C23.7472 36.7476 25.0386 35.003 27.0078 32.5398C28.977 30.0767 33.1095 25.0344 33.1858 25.0953Z" fill="#4F3636"/>
<path d="M31.9864 27.8541C32.0619 27.9149 28.0004 33.1202 26.0058 35.6143C24.0111 38.1084 22.5775 39.7733 22.5012 39.7112C22.4249 39.6492 23.7349 37.8865 25.7291 35.3924C27.7232 32.8983 31.9088 27.7932 31.9864 27.8541Z" fill="#4F3636"/>
<path d="M30.7862 30.6138C30.8617 30.6746 26.7473 35.9438 24.7265 38.4688C22.7057 40.9938 21.2552 42.6801 21.1789 42.619C21.1026 42.5579 22.4295 40.7731 24.4501 38.2481C26.4706 35.7231 30.7096 30.5537 30.7862 30.6138Z" fill="#4F3636"/>
<path d="M29.5862 33.3736C29.6618 33.4344 25.494 38.7674 23.4478 41.3234C21.4015 43.8793 19.9329 45.5867 19.8566 45.5258C19.7803 45.465 21.1251 43.6586 23.1713 41.1022C25.2175 38.5457 29.5097 33.3125 29.5862 33.3736Z" fill="#4F3636"/>
<path d="M28.3885 36.1333C28.464 36.1944 24.2432 41.5915 22.1707 44.1781C20.0983 46.7647 18.6125 48.4937 18.5363 48.4329C18.46 48.3721 19.8224 46.5443 21.8945 43.9575C23.9667 41.3706 28.3114 36.0715 28.3885 36.1333Z" fill="#4F3636"/>
<path d="M27.1886 38.8921C27.2641 38.9532 22.9898 44.4139 20.892 47.0317C18.7941 49.6494 17.2902 51.3995 17.2139 51.3384C17.1377 51.2774 18.5177 49.4282 20.6155 46.811C22.7134 44.1937 27.112 38.8313 27.1886 38.8921Z" fill="#4F3636"/>
<path d="M25.9906 41.6519C26.0661 41.7127 21.7385 47.2375 19.6152 49.8862C17.4919 52.5348 15.9699 54.3061 15.8936 54.2452C15.8173 54.1844 17.2152 52.3142 19.3387 49.6655C21.4623 47.0168 25.914 41.5908 25.9906 41.6519Z" fill="#4F3636"/>
<path d="M24.7904 44.4107C24.8659 44.4715 20.4849 50.0604 18.3362 52.7397C16.1875 55.4191 14.6473 57.2119 14.5713 57.1508C14.4952 57.0897 15.9105 55.1986 18.0597 52.519C20.2089 49.8395 24.7143 44.3496 24.7904 44.4107Z" fill="#4F3636"/>
<path d="M23.5909 47.1704C23.6665 47.2315 19.2323 52.8842 17.0574 55.5947C14.8825 58.3052 13.325 60.1189 13.249 60.0579C13.1729 59.9968 14.6058 58.0843 16.7812 55.3738C18.9566 52.6633 23.5147 47.1096 23.5909 47.1704Z" fill="#4F3636"/>
<path d="M22.3916 49.9302C22.4671 49.9913 17.9801 55.7078 15.779 58.4493C13.5779 61.1907 12.0035 63.0257 11.9267 62.9647C11.8499 62.9036 13.3015 60.9697 15.502 58.2283C17.7026 55.4869 22.3153 49.8691 22.3916 49.9302Z" fill="#4F3636"/>
<path d="M23.229 18.5207C23.086 18.3981 22.8408 18.1302 22.8408 18.1302C22.8118 18.0702 22.7658 18.0201 22.7085 17.9861C22.6512 17.952 22.5851 17.9356 22.5185 17.9389C22.3007 17.964 22.2458 18.3202 22.0947 18.6296C21.9437 18.939 21.704 19.4321 21.497 19.8599C21.0831 20.7145 20.6387 21.6394 20.1676 22.6247C19.2254 24.5978 18.1757 26.8191 17.0455 29.2351C12.5308 38.893 3.3387 58.9254 3.51621 59.0081C3.69371 59.0908 13.1723 39.1918 17.6883 29.5339C18.817 27.1195 19.8491 24.8893 20.7588 22.9014C21.2137 21.9074 21.638 20.9736 22.029 20.1077C22.2244 19.6747 22.4112 19.2589 22.5895 18.8603L22.665 18.6922C22.7405 18.7648 22.8194 18.8327 22.8992 18.8963C25.5144 20.8366 27.5886 20.4546 27.6579 20.4579C27.7276 20.2507 25.6295 20.4747 23.229 18.5207Z" fill="#FEB337"/>
<path d="M107.461 11.1294C106.774 11.9337 104.601 12.6353 100.732 12.6353C97.1593 12.6353 95.2576 12.0572 94.9479 11.3164C94.2228 11.9951 91.8719 12.6353 88.3392 12.6353C84.7812 12.6353 82.8966 12.0484 82.6164 11.2999C81.8568 11.9953 79.4324 12.6353 75.7135 12.6353C71.7175 12.6353 69.6866 11.9566 69.6866 11.1294H69.6194C68.9962 12.1187 66.8674 12.6353 63.1584 12.6353C59.7495 12.6353 57.941 12.0624 57.6293 11.3265C56.6304 12.1811 54.3561 12.6353 50.6076 12.6353C46.5307 12.6353 44.4542 11.9566 44.4542 11.1294H44.4409C43.7077 12.1803 41.6929 12.6353 37.9897 12.6353C34.2865 12.6353 32.4238 11.9566 32.4238 11.1294L42.2839 2.03078C43.9068 2.28597 45.5472 2.41462 47.1901 2.41558C49.0052 2.41558 52.0963 2.03078 52.0963 2.03078C53.7605 2.30556 55.4433 2.45344 57.13 2.47314C59.1115 2.42975 61.0893 2.28209 63.0552 2.03078C64.5303 2.31825 66.0292 2.46636 67.5321 2.47314C69.3293 2.43672 71.1225 2.28881 72.9014 2.03027C74.5198 2.3243 76.1614 2.47235 77.8063 2.47264C79.7459 2.44308 81.6819 2.29535 83.6034 2.03027C85.2064 2.33199 86.8346 2.48012 88.4658 2.47264C90.3912 2.44849 92.3131 2.30073 94.2195 2.03027C95.7159 2.31322 97.2347 2.46127 98.7577 2.47264C100.575 2.43335 102.388 2.28564 104.188 2.03027L107.461 11.1294Z" fill="#E8DFCB"/>
<path d="M53.726 2.2581L53.6384 2.24805C53.2549 2.72158 52.0881 4.67955 50.0263 6.59807C48.1004 8.68046 46.6076 10.6425 46.5137 11.1368L46.5784 11.1492C46.846 10.7091 48.36 8.93356 50.307 6.81774C51.7134 5.51664 52.8718 3.97177 53.726 2.2581V2.2581Z" fill="#4F3636"/>
<path d="M54.75 2.36089L54.6319 2.35059C53.6236 3.87255 52.4841 5.3037 51.2263 6.62772C49.172 8.99488 47.6525 11.1881 47.8633 11.2876C47.8457 11.2577 49.4054 9.27689 51.5171 6.83432C52.8178 5.51718 53.9082 4.00846 54.75 2.36089V2.36089Z" fill="#4F3636"/>
<path d="M56.8438 2.47029L56.6977 2.46777C56.2193 3.12806 55.1407 4.80276 53.623 6.6969C51.7787 9.11936 50.4485 11.3405 50.5119 11.3573C50.6351 11.4177 52.0226 9.39257 53.9339 6.87158C55.0438 5.5016 56.0183 4.02764 56.8438 2.47029V2.47029Z" fill="#4F3636"/>
<path d="M55.7869 2.4343C55.7414 2.43204 55.6965 2.42952 55.6515 2.42676C54.6639 3.9031 53.5859 5.3171 52.4236 6.66066C50.4766 9.05974 49.0525 11.2603 49.1865 11.3226C49.2421 11.3357 50.7153 9.33697 52.7245 6.85268C53.9254 5.51272 54.9541 4.02847 55.7869 2.4343V2.4343Z" fill="#4F3636"/>
<path d="M57.9342 2.45898L57.7904 2.46326C57.3223 3.10117 56.2163 4.752 54.8194 6.73611C53.078 9.17717 51.8408 11.4285 51.834 11.3913C52.0236 11.5076 53.3281 9.44913 55.1409 6.89069C56.1658 5.47451 57.0988 3.99425 57.9342 2.45898V2.45898Z" fill="#4F3636"/>
<path d="M58.338 3.6124C58.6161 3.23688 58.8539 2.83327 59.0475 2.4082L58.9216 2.41524C58.7678 2.63441 58.511 3.00037 58.125 3.47617C57.6615 4.40212 56.7865 5.36301 56.0176 6.78185C54.559 8.95146 53.5028 11.008 53.2266 11.3712L53.3346 11.3619C53.786 10.9798 54.8793 9.12488 56.3484 6.91556C57.026 5.66261 57.9633 4.51196 58.338 3.6124Z" fill="#4F3636"/>
<path d="M60.0576 2.33664C59.7938 2.73157 59.5066 3.11052 59.1978 3.47146C58.7529 4.40471 57.9064 5.37138 57.2168 6.82867C56.0291 8.70948 55.1398 10.5317 54.7246 11.2003C54.7911 11.1898 54.854 11.1782 54.9185 11.1671C55.4538 10.5028 56.3715 8.84295 57.5546 6.94052C58.1501 5.674 59.0593 4.49821 59.4085 3.6087C59.718 3.22089 59.9686 2.78974 60.1523 2.3291L60.0576 2.33664Z" fill="#4F3636"/>
<path d="M78.9132 2.44939C78.4789 3.86671 78.1496 5.31401 77.928 6.77956C77.5226 8.91473 77.2804 10.7641 77.3066 11.4179L77.4204 11.4113C77.5367 10.7669 77.8736 8.98209 78.2805 6.83385C78.5696 4.87864 78.9603 3.21448 79.0696 2.44336C79.0176 2.44571 78.9654 2.44772 78.9132 2.44939Z" fill="#4F3636"/>
<path d="M79.764 2.40896C79.3733 3.82784 79.0955 5.27532 78.9331 6.73787C78.5554 8.83836 78.3971 10.6712 78.4434 11.3309L78.5605 11.3186C78.6551 10.6636 78.9069 8.90094 79.2874 6.78211C79.4976 4.82489 79.8325 3.16275 79.9168 2.39941L79.764 2.40896Z" fill="#4F3636"/>
<path d="M80.9463 6.64821C80.7003 8.0707 80.6158 9.51637 80.6945 10.9578C80.7497 10.9439 80.8 10.9294 80.8529 10.9153C80.9288 9.49485 81.0785 8.07931 81.3013 6.67435C81.3486 4.6636 81.6004 2.97682 81.6254 2.26074L81.4849 2.27432C81.1696 3.71241 80.9893 5.17671 80.9463 6.64821V6.64821Z" fill="#4F3636"/>
<path d="M80.6228 2.34996C80.2692 3.77556 80.0401 5.22908 79.9379 6.69419C79.6642 8.17449 79.542 9.67873 79.5731 11.1837C79.6172 11.1767 79.6622 11.1696 79.7053 11.1623C79.7808 10.4541 79.9515 8.75547 80.2932 6.72888C80.4219 4.75482 80.7147 3.08313 80.7716 2.33789L80.6228 2.34996Z" fill="#4F3636"/>
<path d="M78.0648 2.47048C77.5862 3.89371 77.2044 5.34762 76.9222 6.82226C76.4982 8.94411 76.1772 10.7706 76.1699 11.4568C76.21 11.4568 76.251 11.4568 76.2903 11.4568C76.4366 10.7842 76.849 9.01599 77.2722 6.88711C77.6439 4.91908 78.0865 3.24261 78.2187 2.46973L78.0648 2.47048Z" fill="#4F3636"/>
<path d="M76.5411 2.44013C76.4953 2.43787 76.4487 2.43611 76.4037 2.43359C75.8197 3.89335 75.3211 5.38566 74.9101 6.903C74.6238 8.31179 74.3249 9.4818 74.0825 10.4075C74.0168 10.7386 73.969 11.0729 73.9395 11.4091L74.0928 11.4182C74.1497 11.1754 74.2245 10.8539 74.3287 10.463C74.7094 9.32387 75.0195 8.16239 75.2573 6.98519C75.8127 4.92241 76.387 3.17204 76.5411 2.44013Z" fill="#4F3636"/>
<path d="M77.3754 2.46786C77.3251 2.46786 77.2755 2.46685 77.2266 2.46484C76.698 3.90231 76.2599 5.37135 75.9148 6.86337C75.4818 8.93395 75.0922 10.7115 75.0371 11.4547C75.0809 11.4547 75.128 11.4547 75.1723 11.4547C75.3594 10.727 75.8325 9.00156 76.264 6.93501C76.723 4.93556 77.2269 3.22994 77.3754 2.46786Z" fill="#4F3636"/>
<path d="M75.7154 2.38893L75.5961 2.37988C74.9491 3.86852 74.3841 5.39134 73.9036 6.94153C73.5847 8.36984 73.2803 9.54613 72.9904 10.4704C72.9149 10.7972 72.8645 11.0804 72.832 11.3129C72.8902 11.3195 72.9468 11.327 73.0068 11.3333C73.0654 11.1128 73.1387 10.8454 73.2334 10.5353C73.6557 9.39386 73.9948 8.22348 74.2481 7.03328C74.911 4.88227 75.5722 3.06781 75.7154 2.38893Z" fill="#4F3636"/>
<path d="M74.8927 2.31449L74.8008 2.30469C74.5432 2.85287 73.7 4.68517 72.8915 6.97618C72.6251 8.17915 72.293 9.36668 71.8967 10.5335C71.8358 10.7584 71.7885 10.963 71.752 11.1455C71.8167 11.1586 71.8821 11.1706 71.9501 11.1839C72.0032 11.0115 72.0649 10.819 72.1382 10.6071C72.6039 9.46488 72.9702 8.28473 73.2329 7.07973C74.0374 4.79953 74.7912 2.89208 74.8927 2.31449Z" fill="#4F3636"/>
<path d="M69.6268 2.38672L69.5009 2.39577C69.1424 2.99422 68.4794 4.75841 67.6196 6.80561C66.7811 9.12074 65.7224 10.8927 65.6504 11.3658C65.6796 11.3632 65.7065 11.3597 65.7352 11.357C66.6225 9.96257 67.3649 8.48143 67.9509 6.93656C68.8339 4.83456 69.4092 2.99145 69.6268 2.38672Z" fill="#4F3636"/>
<path d="M68.6403 2.44531L68.497 2.4516C68.1213 3.11288 67.436 4.81423 66.5054 6.76768C65.4602 9.31808 64.2874 11.2602 64.4367 11.4392H64.4501C65.3702 9.99648 66.168 8.47963 66.8352 6.90442C67.5148 5.45067 68.1173 3.96225 68.6403 2.44531V2.44531Z" fill="#4F3636"/>
<path d="M68.7348 6.84434C68.2186 8.10709 67.8198 9.37186 67.4328 10.1327C67.1971 10.4567 67.0209 10.8198 66.9121 11.2052C66.9602 11.1971 67.0101 11.1893 67.0566 11.18C67.22 10.8558 67.4174 10.5499 67.6455 10.2674C68.1411 9.43369 68.5318 8.27826 69.0699 6.96599C69.9008 4.6976 70.4413 2.75974 70.6226 2.30078L70.5242 2.31033C70.1873 2.78009 69.5407 4.64281 68.7348 6.84434Z" fill="#4F3636"/>
<path d="M64.8318 2.30654C64.7933 2.30202 64.753 2.29774 64.7152 2.29297C64.3335 2.88514 63.4787 4.66013 62.0436 6.598C60.7965 8.76584 59.7574 10.6122 59.5469 11.1566L59.638 11.1757C60.0008 10.6786 61.1125 8.93198 62.3573 6.76942C63.3682 5.3925 64.1998 3.89285 64.8318 2.30654V2.30654Z" fill="#4F3636"/>
<path d="M67.6636 2.47168H67.5307H67.5138C67.1248 3.16062 66.4092 4.83432 65.3875 6.72569C64.218 9.31856 63.0228 11.3283 63.2111 11.42C64.1573 9.96787 64.9936 8.4472 65.7131 6.87071C66.4672 5.45252 67.119 3.98244 67.6636 2.47168V2.47168Z" fill="#4F3636"/>
<path d="M66.7028 2.4555C66.6524 2.45374 66.6051 2.45148 66.5562 2.44922C66.1594 3.13589 65.4051 4.81186 64.2716 6.68437C63.0021 9.26342 61.8129 11.3061 61.9783 11.3883C62.9529 9.93314 63.8266 8.41315 64.5934 6.83895C65.4265 5.44377 66.1325 3.97673 66.7028 2.4555Z" fill="#4F3636"/>
<path d="M65.7592 2.39828C65.7134 2.39476 65.6693 2.39074 65.6245 2.38672C65.2284 3.04172 64.431 4.75162 63.1583 6.64123C61.8072 9.14462 60.6719 11.1984 60.7434 11.3431L60.759 11.3449C60.8867 11.2381 62.1227 9.31126 63.4755 6.80385C64.3945 5.42231 65.1602 3.94511 65.7592 2.39828V2.39828Z" fill="#4F3636"/>
<path d="M99.4971 2.45898L99.3418 2.46351C99.523 3.91507 99.7926 5.35426 100.149 6.77306C100.812 9.33477 101.342 11.4172 101.333 11.4546H101.336C101.543 11.4091 101.162 9.25811 100.493 6.6763C100.057 4.81936 99.6802 3.22182 99.4971 2.45898Z" fill="#4F3636"/>
<path d="M101.09 2.36719L100.949 2.378C101.008 3.11996 101.369 4.79945 101.938 6.71419C102.824 9.23467 103.474 11.2681 103.423 11.2867C103.675 11.267 103.158 9.10498 102.275 6.59908C101.718 4.70922 101.274 3.08503 101.09 2.36719Z" fill="#4F3636"/>
<path d="M100.298 2.42188L100.148 2.43042C100.344 3.88734 100.643 5.32845 101.045 6.74274C101.821 9.29464 102.414 11.3592 102.379 11.372C102.615 11.3542 102.163 9.19134 101.385 6.63667C100.892 4.77094 100.483 3.16661 100.298 2.42188Z" fill="#4F3636"/>
<path d="M101.882 2.29883L101.754 2.31089C101.797 3.0129 102.192 4.72807 102.834 6.68831C103.779 9.04441 104.46 10.9654 104.474 11.1791L104.512 11.172C104.665 10.9044 104.093 8.86345 103.169 6.56389C102.539 4.6308 102.056 2.9752 101.882 2.29883Z" fill="#4F3636"/>
<path d="M104.062 6.53059C103.346 4.53994 102.82 2.83583 102.668 2.21777L102.557 2.22984C102.569 2.87554 102.999 4.64274 103.732 6.66607C104.659 8.72081 105.35 10.4375 105.497 10.9535L105.589 10.9284C105.581 10.3566 104.966 8.52903 104.062 6.53059Z" fill="#4F3636"/>
<path d="M97.8723 2.45238C97.8205 2.45012 97.7701 2.4471 97.7188 2.44434C97.7656 3.22024 98.0103 4.89897 98.3598 6.8391C98.7274 8.98432 99.0668 10.8189 99.1892 11.4193C99.2231 11.4214 99.2566 11.4234 99.2899 11.4249C99.3188 10.8292 99.0862 8.96999 98.7065 6.75992C98.3661 4.85574 98.0418 3.21973 97.8723 2.45238Z" fill="#4F3636"/>
<path d="M98.6862 2.47051C98.6335 2.47051 98.5817 2.46925 98.5293 2.46875C98.6929 3.92597 98.9348 5.37337 99.2539 6.80469C99.7487 9.11053 100.174 11.0399 100.265 11.4563H100.33C100.408 11.0388 100.105 9.06705 99.5996 6.71597C99.2114 4.84949 98.8627 3.24163 98.6862 2.47051Z" fill="#4F3636"/>
<path d="M96.2176 2.32513L96.0879 2.31055C96.102 3.0118 96.3309 4.80162 96.5766 6.91292C96.7448 8.71682 96.9125 10.3239 97.0258 11.1694C97.0819 11.1805 97.1426 11.1903 97.202 11.2009C97.2008 10.3684 97.1074 8.74698 96.9294 6.85083C96.6886 4.78604 96.3696 3.0304 96.2176 2.32513Z" fill="#4F3636"/>
<path d="M97.0557 2.40196C97.0053 2.39819 96.959 2.39392 96.9102 2.38965C96.9444 3.14368 97.165 4.86916 97.4696 6.87363C97.7317 8.85926 97.979 10.5898 98.1074 11.3295L98.2456 11.3443C98.1831 9.82423 98.0409 8.30848 97.8196 6.80326C97.5212 4.838 97.2176 3.15223 97.0557 2.40196Z" fill="#4F3636"/>
<path d="M87.0536 2.43359C87.0159 3.17657 87.0033 4.81961 86.8776 6.75069C86.7494 9.07462 86.7949 10.9821 86.8183 11.4189L86.8894 11.4229C87.0277 10.9881 87.1074 9.05275 87.2333 6.7713C87.3354 5.32902 87.3244 3.88094 87.2004 2.44038C87.1526 2.43812 87.1023 2.43611 87.0536 2.43359Z" fill="#4F3636"/>
<path d="M90.6542 2.39551L90.5104 2.40456C90.5011 3.13647 90.5926 4.78102 90.6075 6.72768C90.6205 9.04005 90.7195 10.9143 90.7143 11.3544L90.7897 11.3471C90.95 10.8897 90.9774 8.97093 90.9623 6.71888C90.9558 5.27251 90.8528 3.82819 90.6542 2.39551V2.39551Z" fill="#4F3636"/>
<path d="M89.6442 2.44744C89.6316 3.19795 89.699 4.82063 89.6595 6.73689C89.6595 9.16839 89.7442 11.1241 89.7382 11.4245L89.7884 11.4214C89.9644 11.1123 90.0187 9.11285 90.0162 6.73136C90.0492 5.29785 89.9752 3.86388 89.7947 2.44141L89.6442 2.44744Z" fill="#4F3636"/>
<path d="M88.78 2.46978C88.7606 3.22985 88.7986 4.84549 88.7274 6.74264C88.6895 9.21235 88.7651 11.2022 88.7664 11.4564H88.8061C88.9798 11.2068 89.0477 9.1744 89.0838 6.74465C89.1424 5.31727 89.0919 3.88749 88.933 2.46777C88.8825 2.46853 88.8315 2.46928 88.78 2.46978Z" fill="#4F3636"/>
<path d="M86.1938 2.37695C86.1464 3.08801 86.1112 4.76724 85.9606 6.75462C85.8349 8.28037 85.7948 9.81194 85.8405 11.3422C85.8735 11.3457 85.9042 11.3497 85.9377 11.353C86.0583 10.7922 86.1454 8.94358 86.3154 6.7878C86.4379 5.32388 86.4435 3.85256 86.332 2.38776L86.1938 2.37695Z" fill="#4F3636"/>
<path d="M87.9168 2.46582C87.8886 3.22388 87.9005 4.8458 87.8014 6.74773C87.7187 9.18326 87.7826 11.1546 87.7949 11.4557C87.8105 11.4557 87.8268 11.4557 87.8424 11.4557C88.0022 11.1568 88.0769 9.15159 88.1576 6.75728C88.2388 5.32716 88.2094 3.89291 88.0696 2.46733C88.0186 2.46708 87.9671 2.46683 87.9168 2.46582Z" fill="#4F3636"/>
<path d="M85.3439 2.29395C85.2908 2.94442 85.212 4.6787 85.0446 6.75632C84.8873 8.23308 84.8251 9.71839 84.8582 11.2031C84.9016 11.2109 84.9426 11.2192 84.9872 11.2267C85.0937 10.537 85.1909 8.79799 85.3983 6.80307C85.5396 5.3086 85.5624 3.80531 85.4663 2.30727L85.3439 2.29395Z" fill="#4F3636"/>
<path d="M92.8528 6.69422C92.7163 4.66209 92.5061 2.89464 92.3784 2.25195L92.2606 2.26351C92.249 2.90746 92.3601 4.63369 92.496 6.7093C92.4826 7.82571 92.5404 8.94185 92.6692 10.0509C92.6968 10.3881 92.6943 10.7271 92.6617 11.0638C92.712 11.0528 92.7604 11.0412 92.8097 11.0302C92.8892 10.7079 92.9268 10.3767 92.9215 10.0449C92.9024 9.15714 92.8178 8.03036 92.8528 6.69422Z" fill="#4F3636"/>
<path d="M91.9049 6.70668C91.8614 5.2421 91.7316 3.78136 91.5163 2.33203L91.3834 2.34284C91.3741 3.04007 91.4804 4.71578 91.549 6.71925C91.5366 7.83505 91.5805 8.95076 91.6805 10.0621C91.7083 10.4558 91.7004 10.8512 91.6568 11.2435C91.6928 11.2384 91.7305 11.2339 91.7657 11.2284C91.8825 10.8506 91.9387 10.4567 91.9323 10.0614C91.9361 9.17539 91.871 8.04157 91.9049 6.70668Z" fill="#4F3636"/>
<path d="M49.018 2.33496L48.7982 2.35054C48.3709 2.6323 47.9851 2.97231 47.6521 3.3607C46.7575 4.66025 45.7345 5.86688 44.5985 6.96247C42.9548 8.85182 41.4899 10.4408 40.7754 11.3449C40.8663 11.3359 40.9579 11.3271 41.0456 11.317C41.8764 10.4509 43.3252 8.9682 44.8585 7.20652C46.0051 6.10504 47.01 4.86544 47.85 3.51628C48.1941 3.0804 48.5859 2.68418 49.018 2.33496V2.33496Z" fill="#4F3636"/>
<path d="M40.1803 7.00895C42.462 4.79561 44.3302 2.83814 44.9066 2.32942L44.757 2.31836C44.0089 2.812 42.1445 4.60836 39.9215 6.76339C37.8458 9.18811 35.5881 10.6919 35.0508 11.2785C35.0938 11.2848 35.1414 11.2899 35.1857 11.2959C35.9126 10.7771 38.1515 9.3731 40.1803 7.00895Z" fill="#4F3636"/>
<path d="M39.0076 6.96247C41.5224 4.58475 43.6328 2.53101 44.0012 2.25152L43.9004 2.24121C43.3015 2.52774 41.2315 4.37487 38.7487 6.7169C36.7848 9.02173 34.5822 10.4081 33.8438 11.0265C33.8941 11.041 33.95 11.0544 34.0031 11.0684C35.8824 9.97841 37.5724 8.59181 39.0076 6.96247V6.96247Z" fill="#4F3636"/>
<path d="M42.5222 7.10505C43.7857 5.73296 45.0733 4.57728 45.7513 3.54249C46.0857 3.12243 46.4682 2.74283 46.8909 2.41144C46.8186 2.41144 46.7454 2.41144 46.6738 2.40918C46.2593 2.67926 45.8842 3.00533 45.5592 3.37811C44.8265 4.37897 43.5394 5.47181 42.2634 6.85898C40.3284 9.11279 38.4033 10.748 37.8086 11.4586C37.8685 11.4586 37.9247 11.4606 37.9848 11.4606C39.6129 10.1338 41.1304 8.67715 42.5222 7.10505V7.10505Z" fill="#4F3636"/>
<path d="M41.3511 7.05576C43.4962 4.92361 45.2013 2.99956 45.8469 2.38402L45.6706 2.37598C44.876 2.97468 43.1548 4.75847 41.0917 6.81045C39.0462 9.1942 36.9182 10.7907 36.3965 11.4128C36.4443 11.4158 36.4909 11.4191 36.5395 11.4219C37.2533 10.8558 39.3705 9.36109 41.3511 7.05576Z" fill="#4F3636"/>
<path d="M43.6918 7.15561C44.9728 5.82549 46.166 4.55696 46.801 3.52594C47.1247 3.10723 47.4978 2.72899 47.9121 2.39941C47.8331 2.40268 47.7555 2.4052 47.679 2.40771C47.2782 2.67638 46.9168 2.99926 46.6049 3.36709C45.8931 4.39132 44.7349 5.55379 43.4324 6.91105C41.6362 8.99947 39.9327 10.6309 39.2637 11.4425C39.3392 11.44 39.4105 11.4363 39.4842 11.4332C40.9649 10.0861 42.3695 8.65804 43.6918 7.15561V7.15561Z" fill="#4F3636"/>
<path d="M100.731 11.4613C104.601 11.4613 106.774 10.7593 107.461 9.95553L104.188 0.856853C104.116 0.732795 104.003 0.638002 103.868 0.589315C103.734 0.540629 103.586 0.541201 103.452 0.590931C103.031 0.737968 103.121 1.23915 103.121 1.23915L106.11 9.54759C105.334 9.91581 103.676 10.3308 100.732 10.3308C97.7799 10.3308 96.4568 9.92185 96.0484 9.68709L95.3482 0.804071C95.3241 0.656119 95.2499 0.520884 95.1381 0.420937C95.0262 0.32099 94.8833 0.262377 94.7333 0.254883C94.6632 0.255723 94.5939 0.270482 94.5296 0.298301C94.4652 0.32612 94.4071 0.366443 94.3585 0.416922C94.3099 0.4674 94.2718 0.527026 94.2465 0.592327C94.2212 0.657628 94.2092 0.727299 94.2111 0.797285L94.9476 10.143C95.2573 10.8832 97.159 11.4613 100.731 11.4613Z" fill="#CB9972"/>
<path d="M88.3394 11.4616C91.8722 11.4616 94.2231 10.8216 94.9482 10.1428L94.2118 0.797007C94.2007 0.727577 94.176 0.661005 94.1392 0.601103C94.1023 0.541202 94.054 0.489146 93.9969 0.447916C93.9399 0.406686 93.8753 0.377093 93.8068 0.360828C93.7383 0.344564 93.6672 0.341948 93.5977 0.353132C93.5284 0.353125 93.4599 0.367031 93.3962 0.394021C93.3324 0.421011 93.2748 0.460533 93.2267 0.510231C93.1785 0.559929 93.1409 0.618787 93.1161 0.683299C93.0912 0.74781 93.0797 0.816656 93.082 0.885732L93.7654 9.55335C92.9818 9.89669 91.2027 10.3305 88.3394 10.3305C85.5854 10.3305 84.2714 9.96681 83.798 9.73055L84.7354 0.916144C84.7354 0.916144 84.7062 0.377764 84.2613 0.3285C83.8164 0.279237 83.6087 0.797007 83.6087 0.797007L82.6172 10.1262C82.8974 10.8747 84.7815 11.4616 88.3394 11.4616Z" fill="#FFF21A"/>
<path d="M75.7144 11.4623C79.4332 11.4623 81.8579 10.8224 82.6173 10.1269L83.6088 0.797774C83.6063 0.665107 83.5513 0.538815 83.4559 0.446436C83.3605 0.354058 83.2324 0.303085 83.0994 0.304635C82.9524 0.296518 82.8075 0.342085 82.6916 0.432829C82.5758 0.523573 82.497 0.653292 82.47 0.797774L81.5475 9.47846C80.8538 9.81275 79.0704 10.3313 75.7149 10.3313C72.9143 10.3313 71.5147 9.98995 70.962 9.75041L73.989 1.17353C73.989 1.17353 74.0841 0.616051 73.6397 0.517524C73.5056 0.493513 73.3674 0.506979 73.2405 0.556435C73.1135 0.605891 73.0028 0.689413 72.9204 0.797774L69.6875 9.95652C69.6875 10.7847 71.7189 11.4623 75.7144 11.4623Z" fill="#FEB337"/>
<path d="M63.159 11.4619C66.868 11.4619 68.9968 10.9454 69.62 9.95613L72.9206 0.79739C72.8998 0.679658 72.8403 0.572176 72.7516 0.491831C72.6629 0.411487 72.55 0.362832 72.4306 0.353514C72.0107 0.32838 71.7166 0.79739 71.7166 0.79739L68.6121 9.41549C68.3946 9.63969 67.3811 10.3319 63.16 10.3319C60.972 10.3319 59.7305 10.0866 59.1093 9.87017L64.0863 1.36895C64.0863 1.36895 64.3031 0.863493 63.8834 0.665182C63.7549 0.612004 63.6139 0.596199 63.4768 0.619593C63.3396 0.642987 63.2119 0.704625 63.1084 0.79739L57.6309 10.1532C57.9426 10.8891 59.7511 11.4619 63.159 11.4619Z" fill="#6AAEA2"/>
<path d="M50.6084 11.4622C54.3562 11.4622 56.6313 11.0073 57.6301 10.1534L63.1079 0.79764C63.0944 0.677837 63.0381 0.566914 62.9492 0.485302C62.8603 0.403691 62.7449 0.356887 62.6242 0.353514C62.1795 0.328379 61.7956 0.79764 61.7956 0.79764L56.763 9.39262C56.1917 9.78195 54.6664 10.3311 50.6081 10.3311C48.1324 10.3311 46.7239 10.075 46.0186 9.84906L53.0152 1.43857C53.0765 1.3375 53.0981 1.21731 53.0759 1.10125C53.0536 0.985183 52.989 0.881487 52.8946 0.810207C52.5539 0.521412 52.0947 0.798394 52.0947 0.798394L44.4551 9.95638C44.4551 10.7846 46.5315 11.4622 50.6084 11.4622Z" fill="#99BE51"/>
<path d="M37.9897 11.4623C41.6929 11.4623 43.7077 11.0074 44.4409 9.95652L51.9606 0.958382C51.9771 0.901077 51.9797 0.840696 51.9682 0.782194C51.9568 0.723692 51.9316 0.668736 51.8947 0.621836C51.8578 0.574936 51.8104 0.53743 51.7562 0.512394C51.702 0.487358 51.6426 0.475505 51.583 0.477811C51.4325 0.467717 51.2817 0.492064 51.142 0.548995C51.0024 0.605926 50.8776 0.693939 50.7773 0.806319C50.7773 0.806319 43.6312 9.35807 43.6146 9.38194C43.2724 9.87232 42.0188 10.4569 37.9897 10.4569C35.7693 10.4569 34.5098 10.2094 33.8746 9.98668L42.9675 1.59554C42.9675 1.59554 43.3321 1.12678 43.0035 0.843517C42.9042 0.754097 42.7746 0.705758 42.6409 0.708326C42.5073 0.710894 42.3796 0.764176 42.2839 0.857341L32.4238 9.95601C32.4238 10.7847 34.2868 11.4623 37.9897 11.4623Z" fill="#B172B6"/>
<path d="M100.732 11.4619C97.2194 11.4619 95.3258 10.9026 94.9688 10.18V65.4268C95.3321 66.6242 97.4692 67.5517 100.984 67.5517C104.853 67.5517 107.461 66.4294 107.461 65.0581V9.95605C106.774 10.7599 104.601 11.4619 100.732 11.4619Z" fill="#CB9972"/>
<path d="M88.3402 11.4623C84.7822 11.4623 82.8976 10.8755 82.6174 10.127C82.6129 10.131 82.6071 10.1347 82.6025 10.1388V65.378C82.4767 65.7787 82.1153 66.1504 81.5566 66.4691C82.134 66.1403 82.5028 65.7558 82.6174 65.3406C82.8976 66.5802 85.0345 67.5524 88.5919 67.5524C92.1247 67.5524 94.5919 66.595 94.9489 65.3685C94.954 65.3883 94.9638 65.4074 94.9696 65.4275V10.1805C94.9635 10.1682 94.9542 10.1554 94.9489 10.1435C94.2238 10.8234 91.8729 11.4623 88.3402 11.4623Z" fill="#FFF21A"/>
<path d="M69.6855 9.95605H69.6465V65.0581H69.6855C69.6855 66.4294 71.9682 67.5517 75.9642 67.5517C79.6453 67.5517 82.2162 66.5991 82.6004 65.3775V10.1383C81.8265 10.829 79.4101 11.4619 75.7124 11.4619C71.7169 11.4619 69.6855 10.7842 69.6855 9.95605Z" fill="#FEB337"/>
<path d="M63.158 11.4619C59.7491 11.4619 57.9405 10.889 57.6288 10.1531C57.6245 10.1569 57.6195 10.1601 57.6152 10.1637C57.617 10.1622 57.6195 10.1607 57.621 10.1591V65.4014C57.623 65.3956 57.6268 65.3901 57.6288 65.3846C57.9405 66.6026 60.0009 67.5517 63.4097 67.5517C67.1188 67.5517 69.619 66.4294 69.619 65.0581H69.6472V9.95605H69.619C68.9968 10.9453 66.868 11.4619 63.158 11.4619Z" fill="#327FB7"/>
<path d="M44.4548 9.95605H44.4492V65.0581H44.4548C44.4548 66.4294 46.783 67.5517 50.8598 67.5517C54.5898 67.5517 57.2048 66.6116 57.622 65.4014V10.1591C56.6196 11.0089 54.347 11.4619 50.6081 11.4619C46.5312 11.4619 44.4548 10.7842 44.4548 9.95605Z" fill="#71C591"/>
<path d="M37.9897 11.4619C34.2868 11.4619 32.4238 10.7832 32.4238 9.95605V65.0581C32.4238 66.4294 34.5388 67.5517 38.2415 67.5517C41.9442 67.5517 44.4409 66.4294 44.4409 65.0581H44.4487V9.95605H44.4409C43.7077 11.0069 41.6929 11.4619 37.9897 11.4619Z" fill="#C490D1"/>
<path d="M107.997 20.4027C107.997 17.2795 107.982 14.3038 107.955 11.5969C107.884 10.8579 108.082 10.3987 107.79 9.47978C107.565 8.87907 107.346 8.29671 107.133 7.73269C106.708 6.60616 106.307 5.55806 105.938 4.60244C105.568 3.64683 105.231 2.78422 104.928 2.02792C104.868 1.87561 104.547 1.01928 104.445 0.735507C104.427 0.680067 104.391 0.632617 104.341 0.601541C104.258 0.497743 104.151 0.414928 104.03 0.359778C103.909 0.304628 103.777 0.278684 103.643 0.284041C103.51 0.289398 103.38 0.325904 103.264 0.390616C103.148 0.455328 103.048 0.546433 102.974 0.656585C102.797 0.90793 102.758 1.48376 102.807 1.91833C101.317 2.0991 99.8177 2.18824 98.3171 2.18526C97.4828 2.16586 96.6501 2.10235 95.8225 1.995C95.6966 1.97991 95.7361 2.02817 95.7031 1.60616C95.6847 1.37669 95.6762 1.35482 95.6581 1.12534C95.6248 0.702079 95.5339 0.140826 95.0248 0.0302343C94.9449 0.0133844 94.8635 0.00387765 94.7819 0.00183258C94.6672 -0.00582037 94.5522 0.010552 94.4442 0.0498984C94.3362 0.0892447 94.2377 0.150695 94.1549 0.230305C93.9765 0.119351 93.7663 0.0705622 93.5572 0.0915737C93.3481 0.112585 93.1519 0.202211 92.9992 0.346426C92.6508 0.651055 92.7847 1.40459 92.8648 1.91406C90.2342 2.23682 87.5748 2.25006 84.9412 1.95352L84.943 1.84645C85.0331 1.35105 85.1472 0.705094 84.837 0.374074C84.7687 0.288406 84.6838 0.217489 84.5873 0.165639C84.4907 0.11379 84.3846 0.0820921 84.2754 0.0724753C84.1662 0.0628585 84.0562 0.0755232 83.9521 0.1097C83.8479 0.143877 83.7519 0.19885 83.6697 0.271274C83.555 0.171835 83.416 0.104382 83.2668 0.0757276C83.2046 0.0535479 83.1382 0.0454777 83.0725 0.0521017C82.9773 0.045226 82.8817 0.047161 82.7869 0.0578823C82.2851 0.11921 82.1905 0.74732 82.1497 1.13137C82.126 1.35457 82.1023 1.57785 82.0784 1.80121C82.0281 2.26469 80.3446 2.09201 79.542 2.14052C77.7813 2.24083 76.0151 2.17848 74.2659 1.95428C74.3054 1.45435 74.3716 0.819456 74.0597 0.452744C73.7789 0.123232 73.3466 0.177523 73.01 0.373069C72.6383 -0.0662815 71.9198 0.0312398 71.5368 0.562331C71.3485 0.899888 71.2061 1.26098 71.1133 1.63607C70.9688 2.03823 71.0524 1.97438 70.786 2.00228C70.2499 2.05808 69.7126 2.09855 69.1746 2.1355C67.8698 2.2189 66.5605 2.19662 65.2594 2.06889C64.9114 2.03647 64.4199 2.14932 64.4194 1.84117C64.4194 1.6225 64.4242 1.40383 64.4207 1.18491C64.4091 0.483409 63.8041 0.204668 63.2506 0.403481C63.1904 0.313454 63.109 0.23949 63.0135 0.18802C62.9181 0.13655 62.8115 0.109133 62.703 0.108151C62.6189 0.0877327 62.5315 0.0848956 62.4463 0.0998185C62.3611 0.114741 62.2799 0.147102 62.2078 0.194866C62.0147 0.267437 61.8362 0.373738 61.6805 0.508794C61.4104 0.745812 61.255 1.16405 61.078 1.46617L60.728 2.06411C60.7139 2.08925 59.3646 2.10533 59.233 2.11438C57.9397 2.2026 56.6421 2.20587 55.3485 2.12419C54.8179 2.09151 54.2885 2.03521 53.76 1.9769C53.2881 1.92462 53.3571 2.00203 53.3634 1.56796C53.4115 1.33353 53.3649 1.08961 53.2337 0.88933C53.0323 0.477376 52.6111 0.342405 52.1158 0.549764C51.864 0.149623 51.3821 0.135799 50.8745 0.366282C50.6833 0.482351 50.5196 0.638417 50.3946 0.823729C49.7279 1.622 49.3591 2.03395 48.2666 2.10006C46.6534 2.17488 45.0367 2.10936 43.4349 1.90426C43.3759 1.89747 43.4412 1.32617 43.4182 1.15023C43.3636 0.734753 43.1894 0.619135 42.8339 0.442691C42.2422 0.149372 41.1414 1.52749 40.8302 1.81478C39.4267 3.11021 38.0231 4.40547 36.6194 5.70057L32.8426 9.18672C32.5657 9.44284 32.0508 9.81809 32.0508 10.1828V64.8729C32.0508 67.6522 36.1855 67.9046 38.4151 67.9046C40.6446 67.9046 43.8032 67.0988 44.4614 65.9486C45.0058 66.5362 45.6899 66.9771 46.4505 67.2305C47.6414 67.6864 49.2065 67.9129 50.8725 67.9091C51.5172 67.9088 52.1613 67.8728 52.8019 67.8013C54.6362 67.6779 56.691 67.2569 57.6044 66.0034C58.2591 67.0875 59.7194 67.5462 61.1941 67.7276C62.0511 67.867 62.9194 67.9255 63.7874 67.9023C64.819 67.8915 65.8455 67.7553 66.8441 67.4969C68.0118 67.233 69.1587 66.7574 69.6542 65.8978C69.6754 65.9325 69.6983 65.9661 69.723 65.9984C70.0042 66.3617 70.3634 66.6576 70.7741 66.8643C70.8086 66.8819 70.8446 66.8952 70.8794 66.9123C72.0985 67.6175 73.9793 67.9724 76.0059 67.9604C77.0037 67.9623 77.9993 67.868 78.979 67.6789C80.4625 67.4632 81.9127 66.9874 82.6046 65.9805C83.003 66.6192 83.685 67.0347 84.4719 67.3074C85.84 67.8132 87.2943 68.0457 88.7522 67.9918C90.0325 67.9962 91.3063 67.8088 92.5309 67.4358C93.5325 67.1666 94.4324 66.724 94.9387 65.9941C95.61 67.0528 97.1194 67.4745 98.4841 67.6645C99.4953 67.8484 100.522 67.9339 101.55 67.9197C102.824 67.9276 104.093 67.7578 105.32 67.4152C106.054 67.2178 106.736 66.8607 107.316 66.3696C107.678 66.0457 107.902 65.5952 107.941 65.1111C107.954 64.7155 107.951 64.3704 107.956 63.9901C107.983 61.0054 107.998 57.7239 107.998 54.2789C107.998 47.3338 107.937 41.0504 107.839 36.5287C107.936 32.422 107.997 26.7147 107.997 20.4027ZM32.784 9.88068L34.8332 7.98956L41.8076 1.55363L42.3885 1.01752C42.4188 0.985429 42.4555 0.960028 42.4962 0.942949C42.5369 0.92587 42.5808 0.91749 42.6249 0.918348C42.6691 0.919206 42.7126 0.929284 42.7526 0.947933C42.7926 0.966581 42.8283 0.993388 42.8573 1.02663C42.8864 1.05987 42.9081 1.0988 42.9211 1.14093C42.9342 1.18306 42.9382 1.22745 42.9331 1.27124C42.9279 1.31504 42.9136 1.35726 42.8911 1.39521C42.8686 1.43315 42.8384 1.46597 42.8024 1.49155L42.4751 1.79317L39.3953 4.63537C37.5153 6.37116 35.6345 8.10686 33.7528 9.84247C33.7283 9.8641 33.7097 9.89166 33.6988 9.92252C33.688 9.95338 33.6853 9.9865 33.691 10.0187C33.6967 10.0509 33.7106 10.0811 33.7313 10.1064C33.7521 10.1317 33.779 10.1513 33.8095 10.1632C36.1511 10.9333 38.9738 10.7724 41.3821 10.4465C42.3827 10.3112 43.2828 10.0735 43.9354 9.29027C46.093 6.70109 48.2537 4.11408 50.4175 1.52925C50.5512 1.3694 50.8708 0.951161 51.0261 0.811162C51.3995 0.468831 51.9738 0.570877 51.8029 0.854645C51.5634 1.18057 51.3038 1.49118 51.0253 1.78462L47.4047 6.11654L44.4428 9.6605C43.8234 10.3509 42.9947 10.8202 42.0833 10.9966C40.9353 11.182 39.7742 11.2745 38.6112 11.2731C38.405 11.2731 38.2021 11.2731 38.0069 11.2731C36.6625 11.301 35.3196 11.1679 34.0069 10.8768C33.5816 10.7431 33.1754 10.5551 32.7983 10.3175C32.6462 10.1946 32.575 10.088 32.784 9.88068ZM46.0504 8.33667L51.5919 1.69338L52.181 0.987103C52.5114 0.590732 53.0789 1.06728 52.6972 1.52599C51.9509 2.42312 51.2046 3.32025 50.4583 4.21738L45.8638 9.74068C45.8474 9.76433 45.8365 9.7914 45.8322 9.81985C45.8278 9.8483 45.83 9.87737 45.8385 9.90486C45.8471 9.93234 45.8618 9.95751 45.8816 9.97845C45.9014 9.99939 45.9257 10.0156 45.9527 10.0257C48.2313 10.7141 50.8018 10.5922 53.1469 10.4314C53.9022 10.3796 56.2861 10.3389 56.8828 9.5391C56.9012 9.51824 56.918 9.49606 56.9332 9.47275V9.47275L61.5033 1.66674L61.5065 1.66096C61.6073 1.48954 61.708 1.31804 61.8087 1.14646C61.9935 0.83127 62.3102 0.499747 62.6013 0.503768C62.8707 0.507287 62.9616 0.675436 62.8211 0.914214C62.7013 1.11914 62.5813 1.32391 62.4613 1.5285C61.5655 3.05919 60.6694 4.58979 59.773 6.12031L57.5674 9.88797C57.3257 10.3007 56.7637 10.5276 56.2347 10.6784C54.499 11.1102 52.7108 11.2943 50.9234 11.2251C49.0207 11.2379 47.2957 11.1336 46.0914 10.871C46.0511 10.8644 46.0144 10.8561 45.9761 10.8486C45.3872 10.7033 44.7852 10.4588 44.6505 10.0217C44.6054 9.8749 45.8419 8.586 46.0504 8.33667ZM58.8117 8.50633C60.1312 6.25227 61.4509 3.99855 62.7707 1.74516L63.2021 1.00847C63.4216 0.633462 64.0143 1.1173 63.7864 1.50663L62.13 4.33652C61.071 6.14419 60.012 7.95236 58.953 9.76104C58.9369 9.78478 58.9263 9.81184 58.9221 9.84021C58.9179 9.86857 58.9202 9.89752 58.9287 9.9249C58.9373 9.95227 58.9519 9.97738 58.9715 9.99835C58.991 10.0193 59.0151 10.0356 59.0418 10.0461C61.1107 10.7224 63.4946 10.5932 65.631 10.4208C66.5575 10.3454 68.0043 10.265 68.7329 9.55871C68.8898 9.4079 68.9404 9.05778 69.0099 8.86374L69.7207 6.89068C70.3181 5.23181 70.9157 3.57294 71.5134 1.91406C71.6386 1.56654 71.7638 1.21884 71.889 0.870982C71.9963 0.573642 72.8428 0.451991 72.6985 0.852131C72.629 1.0455 72.5595 1.2387 72.4898 1.43173C71.954 2.91852 71.4184 4.40522 70.8829 5.89184C70.4252 7.16264 69.9673 8.43344 69.5092 9.70423C69.3953 10.0006 69.1932 10.2549 68.9301 10.4331C68.6468 10.5877 68.3428 10.7013 68.0275 10.7704C66.9481 11.0688 65.3759 11.2015 63.6399 11.2229C62.3936 11.256 61.1466 11.1931 59.91 11.0346C59.5953 10.9552 58.2266 10.557 57.8721 10.3474C57.8436 10.3263 57.7827 10.265 57.788 10.2562L58.8117 8.50633ZM70.3381 8.67825C71.156 6.36085 71.9739 4.04345 72.7917 1.72606C72.8852 1.46181 72.9785 1.19773 73.0717 0.933818C73.1993 0.571882 73.8726 0.93231 73.7404 1.30732L72.7454 4.12665C72.0907 5.97923 71.4369 7.83189 70.784 9.68463C70.7673 9.73153 70.7696 9.78308 70.7904 9.82832C70.8112 9.87356 70.8488 9.90893 70.8953 9.92693C72.7635 10.6855 75.0769 10.5633 77.0387 10.4889C78.1307 10.453 79.2171 10.3184 80.2847 10.0868C80.612 10.0139 81.4908 9.88571 81.7005 9.5856C81.8224 9.41217 81.7838 9.0246 81.8047 8.82931C81.8794 8.12554 81.9541 7.42236 82.0288 6.71977L82.5538 1.7811C82.5874 1.46189 82.6209 1.14277 82.6545 0.823729C82.6842 0.542475 83.4436 0.544989 83.4098 0.856404L83.3494 1.42444C83.1806 3.01328 83.0117 4.60194 82.8428 6.19044C82.7069 7.47062 82.5708 8.75072 82.4347 10.0307C82.4188 10.1798 82.1326 10.3273 81.777 10.4555C79.9075 10.9866 77.9685 11.2333 76.0253 11.1874C74.1594 11.204 72.4666 11.101 71.2885 10.8453C71.1941 10.8293 71.1065 10.8104 71.0224 10.79C70.762 10.6986 70.5101 10.5848 70.2693 10.45C69.5553 10.0425 70.1288 9.27142 70.3381 8.67825V8.67825ZM82.9597 8.68654L83.7127 1.60114C83.7394 1.3508 83.7661 1.10038 83.7928 0.849869C83.8349 0.452494 84.5655 0.724197 84.523 1.11931C84.4223 2.06403 84.3216 3.00875 84.2208 3.95347C84.0166 5.87341 83.8124 7.79326 83.6085 9.71303C83.6053 9.75433 83.6155 9.79555 83.6376 9.83062C83.6597 9.86569 83.6925 9.89276 83.7311 9.90782C85.239 10.6081 87.177 10.5284 88.7877 10.5148C90.4633 10.5007 92.2789 10.3736 93.845 9.72384C93.882 9.70571 93.9121 9.67617 93.931 9.63959C93.9499 9.60301 93.9564 9.56135 93.9497 9.52075L93.5109 3.95221C93.4355 2.99426 93.36 2.0363 93.2842 1.07834C93.2538 0.693282 93.9963 0.479135 94.0268 0.864949C94.0464 1.11629 94.0661 1.36714 94.0859 1.61748C94.2727 3.98363 94.4593 6.34971 94.6456 8.7157L94.737 9.87716C94.768 10.2703 94.6867 10.2152 94.3868 10.3607C94.2395 10.4324 94.0159 10.4801 93.8631 10.5445C92.1889 11.0012 90.458 11.2172 88.7227 11.1859C86.9602 11.2078 85.3561 11.1183 84.2425 10.876C84.1317 10.8561 84.0302 10.8325 83.9328 10.8074C83.666 10.7133 83.4085 10.5944 83.1639 10.4525C82.5616 10.0961 82.8975 9.27997 82.9597 8.68654V8.68654ZM94.4598 1.55213C94.4444 1.35993 94.4292 1.16723 94.4143 0.974033C94.3891 0.649296 94.5608 0.461039 94.77 0.443445C95.0064 0.42384 95.1074 0.615616 95.1631 0.836045C95.2131 1.15197 95.2383 1.47131 95.2386 1.79115L95.8643 9.72007C95.9229 10.464 99.4303 10.4897 99.7921 10.5043C101.863 10.5885 104.263 10.5847 106.194 9.71806C106.239 9.69583 106.273 9.65724 106.29 9.61037C106.306 9.56351 106.304 9.51202 106.284 9.46671L104.33 4.03767L103.367 1.36613C103.261 1.07156 103.635 0.801108 103.876 0.857409C104.067 1.08613 104.148 1.67177 104.364 2.23C104.613 3.0054 105.112 4.19049 105.436 5.16143C105.759 6.13238 106.74 8.89968 106.949 9.50618C106.994 9.56599 107.025 9.63491 107.04 9.708C107.054 9.78109 107.053 9.85655 107.035 9.92899C107.017 10.0014 106.984 10.0691 106.937 10.1271C106.89 10.1851 106.831 10.232 106.763 10.2645C105.584 10.7259 104.338 10.9935 103.073 11.057C101.34 11.2174 99.5964 11.2258 97.8622 11.0821C97 11.0629 96.153 10.8523 95.3826 10.4656C95.2361 10.3412 95.1435 10.165 95.1243 9.97393L94.8249 6.18566C94.7032 4.64123 94.5815 3.09672 94.4598 1.55213V1.55213ZM103.029 2.46049C103.19 3.04687 103.454 3.61969 103.646 4.16284C104.258 5.8874 104.869 7.61171 105.48 9.33576C105.507 9.41318 105.534 9.49059 105.562 9.56801C105.209 9.68122 104.849 9.77214 104.485 9.84021C102.702 10.2089 100.824 10.1944 99.0156 10.089C98.7464 10.0735 96.2492 9.8377 96.2341 9.64542C96.1955 9.15463 96.1568 8.66375 96.1181 8.17279C95.9702 6.29525 95.8222 4.4177 95.6742 2.54016C98.1204 2.80083 100.589 2.77409 103.029 2.46049V2.46049ZM92.8902 2.47833L93.1143 9.59993C93.0388 9.61526 92.9499 9.63562 92.8474 9.66402C91.2488 10.1059 89.5312 10.1524 87.8873 10.1396C86.7519 10.161 85.6183 10.0395 84.5134 9.77788L84.9221 2.52081C87.5708 2.81467 90.2448 2.80041 92.8902 2.47833V2.47833ZM82.0636 2.49643C82.0575 2.72264 82.0517 2.93276 82.0336 3.10217C82 3.41652 81.9665 3.73095 81.9329 4.04546C81.8518 4.80855 81.7707 5.57163 81.6894 6.33471C81.6189 6.99876 81.5483 7.66273 81.4777 8.32662C81.4573 8.51789 81.3666 9.36794 81.3639 9.38226C81.3513 9.39081 81.143 9.44158 81.0972 9.45968C79.9458 9.90079 78.6471 10.0071 77.4298 10.0928C75.7448 10.2188 74.051 10.1611 72.3785 9.92089C72.1181 9.88182 71.8602 9.82828 71.6058 9.76054C71.6159 9.73012 71.6277 9.69418 71.6438 9.64743C71.9006 8.88837 72.1574 8.12939 72.4143 7.3705C72.9643 5.74615 73.5141 4.12179 74.0637 2.49743C76.7215 2.80481 79.4061 2.80447 82.0638 2.49643H82.0636ZM70.8593 2.55675C70.8222 2.69222 70.7883 2.81061 70.7585 2.89657L68.8128 8.29746C68.7312 8.52367 68.5157 9.24453 68.4603 9.29856C68.034 9.71178 67.2603 9.80377 66.7106 9.90405C65.1189 10.1508 63.5047 10.2206 61.8976 10.1122C61.2762 10.0841 60.6571 10.0169 60.0442 9.91109C59.9646 9.89777 59.8866 9.87917 59.808 9.86208C59.8312 9.82287 59.8543 9.78358 59.8773 9.7442L61.0841 7.69272L63.9015 2.9031C63.9769 2.77068 64.0442 2.63377 64.1029 2.49316C64.1077 2.49316 64.1127 2.49668 64.1178 2.49743C66.3552 2.78111 68.6182 2.80102 70.8603 2.55675H70.8593ZM53.0613 2.45998C55.2827 2.74251 57.5267 2.8033 59.7602 2.64145C60.0016 2.62461 60.2308 2.6319 60.4428 2.61984C60.2413 3.01395 60.083 3.34572 59.9896 3.50558L58.14 6.66473C58.138 6.6685 58.1359 6.67202 58.1337 6.67553L56.8539 8.86223C56.5464 9.23909 56.133 9.51559 55.667 9.65623C55.364 9.74395 55.0566 9.81601 54.7462 9.87213C54.3025 9.94452 53.8534 9.98901 53.4213 10.0317C53.1192 10.0616 52.817 10.084 52.5149 10.1034C52.0388 10.1235 51.5647 10.1328 51.1004 10.1406C50.6192 10.1486 50.1348 10.1481 49.6501 10.1348C49.0368 10.1097 48.4254 10.0679 47.8197 10.0051C47.8078 10.0038 47.1247 9.90958 46.7989 9.84574C48.7346 7.55717 50.6704 5.26893 52.6063 2.98102C52.7504 2.8106 52.8821 2.63018 53.0006 2.44113C53.0201 2.4496 53.0404 2.45592 53.0613 2.45998V2.45998ZM47.9685 2.67689C48.186 2.66634 48.5851 2.69977 48.9592 2.68594L47.126 4.88043L45.8648 6.39076L45.8565 6.40081C45.1767 7.21484 44.4969 8.02902 43.8171 8.84338C42.9326 9.90355 41.7598 10.0498 40.4032 10.1793C40.3671 10.1828 40.1317 10.2004 40.0552 10.2062C38.3011 10.3743 36.5324 10.3121 34.7945 10.0212C36.9962 7.98646 39.1979 5.95183 41.3995 3.91728C42.2303 3.15244 42.7792 2.72591 43.0713 2.42379C43.0877 2.42945 43.1045 2.43374 43.1217 2.43661C44.7278 2.65376 46.3496 2.73414 47.9695 2.67689H47.9685ZM106.968 63.9899C106.969 64.3556 106.979 64.7479 106.974 65.0785C106.95 65.3164 106.837 65.5365 106.658 65.6955C106.188 66.0973 105.639 66.3956 105.046 66.5707C103.904 66.9223 102.72 67.1218 101.525 67.1639C99.3094 67.2735 97.5006 67.0115 96.3887 66.5257C95.2099 66.0811 95.0402 65.3313 94.948 65.3677C94.8121 65.3356 94.5318 66.0228 93.3661 66.4033C92.265 66.8248 90.5965 67.0862 88.7428 67.101C86.8852 67.1327 85.2103 66.8871 84.1297 66.4445C82.9846 66.0411 82.7547 65.3135 82.6175 65.3401H82.6162C82.4956 65.315 82.1905 66.0481 80.9381 66.439C79.7547 66.8746 77.9749 67.1362 76.0017 67.1407C74.0274 67.1541 72.238 66.8881 71.1073 66.3772C69.909 65.9154 69.8161 65.093 69.6953 65.0611C69.692 65.0284 69.6872 65.0219 69.687 65.0581C69.4646 64.9209 69.5283 65.843 68.3618 66.3133C67.3101 66.8479 65.626 67.1548 63.7701 67.1885C61.9069 67.2292 60.2147 67.0088 59.1285 66.535C57.9768 66.1107 57.7394 65.3537 57.6301 65.3856C57.5294 65.3572 57.185 66.1022 55.9051 66.4935C54.6931 66.9311 52.8792 67.1933 50.8713 67.1973C48.8628 67.2046 47.0394 66.9366 45.8809 66.4113C44.7464 65.9825 44.5943 65.2109 44.4815 65.0805C44.4781 65.0748 44.4734 65.07 44.4679 65.0664C44.4647 65.0639 44.4609 65.0621 44.4569 65.0612C44.4529 65.0602 44.4488 65.0601 44.4448 65.0609H44.4425C44.4274 65.0433 44.4133 65.0631 44.4047 65.1061C44.2869 65.3949 44.1099 65.656 43.8853 65.8728C43.6606 66.0895 43.3932 66.2571 43.1 66.3648C42.0153 66.8886 39.8565 67.1943 38.3826 67.1943C36.9087 67.1943 36.0848 67.1455 34.83 66.8157C34.8171 66.8125 34.5107 66.7225 34.4558 66.7047C33.5212 66.3955 32.8016 65.8815 32.8016 65.0219V10.6418C33.091 10.8932 33.4396 11.0673 33.8148 11.1477C34.9528 11.5021 36.5856 11.6504 38.372 11.6338C40.1534 11.619 41.787 11.4579 42.9152 11.0658C43.5289 10.9168 44.0653 10.5453 44.4198 10.0234C44.4349 10.2444 44.8932 10.962 46.0098 11.1884C47.2436 11.5446 49.002 11.7012 50.9282 11.6886C52.8543 11.676 54.6042 11.4961 55.8346 11.1389C57.0915 10.8197 57.584 10.1921 57.6223 10.1587L57.6341 10.1443L57.6301 10.1526C57.5246 10.1727 57.9677 10.9318 59.1456 11.2271C60.2733 11.5682 61.885 11.7087 63.6472 11.6841C65.4094 11.6594 67.0158 11.4777 68.1289 11.0808C69.2944 10.7315 69.4634 10.2725 69.6648 9.9312C69.7491 10.2951 69.8849 10.93 71.1929 11.21C72.4075 11.5747 74.137 11.7379 76.0329 11.7215C79.0772 11.7999 81.6023 10.9509 82.3813 10.4346C82.4755 10.3695 82.5509 10.2807 82.5999 10.1773C82.6334 10.3605 83.1115 10.9853 84.1476 11.2405C85.2972 11.5923 86.9363 11.7414 88.732 11.7195C92.0208 11.7927 94.6582 10.6928 94.9372 10.2537C95.0769 10.5711 96.2314 11.3797 97.8053 11.5029C99.5678 11.7571 101.354 11.8077 103.128 11.6537C104.491 11.6162 105.821 11.2245 106.987 10.5173C106.98 10.8722 106.951 11.2787 106.968 11.5954C106.941 14.3023 106.926 17.278 106.926 20.4012C106.926 26.7132 106.987 32.4205 107.085 36.527C106.987 41.0487 106.926 47.332 106.926 54.2772C106.926 57.7239 106.941 61.0052 106.968 63.9899Z" fill="#4F3636"/>
<path d="M44.4477 65.3325C44.3492 65.3325 44.2695 52.9947 44.2695 37.7909C44.2695 22.5682 44.3492 10.2305 44.4477 10.2305C44.5463 10.2305 44.6259 22.5682 44.6259 37.7909C44.6249 52.9947 44.546 65.3325 44.4477 65.3325Z" fill="#4F3636"/>
<path d="M57.6226 65.3325C57.4751 65.3325 57.3555 52.9947 57.3555 37.7909C57.3555 22.5682 57.4751 10.2305 57.6226 10.2305C57.7702 10.2305 57.8901 22.5682 57.8901 37.7909C57.8901 52.9947 57.7702 65.3325 57.6226 65.3325Z" fill="#4F3636"/>
<path d="M69.648 65.3325C69.5002 65.3325 69.3809 52.9947 69.3809 37.7909C69.3809 22.5682 69.5002 10.2305 69.648 10.2305C69.7958 10.2305 69.9155 22.5682 69.9155 37.7909C69.9155 52.9947 69.7956 65.3325 69.648 65.3325Z" fill="#4F3636"/>
<path d="M82.6031 65.3325C82.406 65.3325 82.2461 52.9947 82.2461 37.7909C82.2461 22.5682 82.406 10.2305 82.6031 10.2305C82.8003 10.2305 82.9601 22.5682 82.9601 37.7909C82.9601 52.9947 82.8005 65.3325 82.6031 65.3325Z" fill="#4F3636"/>
<path d="M94.9701 65.3325C94.7727 65.3325 94.6133 52.9947 94.6133 37.7909C94.6133 22.5682 94.7727 10.2305 94.9701 10.2305C95.1675 10.2305 95.3268 22.5682 95.3268 37.7909C95.3268 52.9947 95.1672 65.3325 94.9701 65.3325Z" fill="#4F3636"/>
<path d="M34.0728 62.7404C33.8771 62.7404 33.7188 40.2269 33.7188 29.3367C33.7188 18.4464 33.8771 12.7773 34.0728 12.7773C34.2684 12.7773 34.427 18.4462 34.427 29.3367C34.427 40.2272 34.2686 62.7404 34.0728 62.7404Z" fill="#DDBEDD"/>
</svg>
